<?xml version="1.0" encoding="utf-8" standalone="no"?>
<!DOCTYPE svg PUBLIC "-//W3C//DTD SVG 1.1//EN"
  "http://www.w3.org/Graphics/SVG/1.1/DTD/svg11.dtd">
<svg xmlns:xlink="http://www.w3.org/1999/xlink" width="460.8pt" height="345.6pt" viewBox="0 0 460.8 345.6" xmlns="http://www.w3.org/2000/svg" version="1.1">
 <metadata>
  <rdf:RDF xmlns:dc="http://purl.org/dc/elements/1.1/" xmlns:cc="http://creativecommons.org/ns#" xmlns:rdf="http://www.w3.org/1999/02/22-rdf-syntax-ns#">
   <cc:Work>
    <dc:type rdf:resource="http://purl.org/dc/dcmitype/StillImage"/>
    <dc:date>2023-03-09T16:12:35.996811</dc:date>
    <dc:format>image/svg+xml</dc:format>
    <dc:creator>
     <cc:Agent>
      <dc:title>Matplotlib v3.6.2, https://matplotlib.org/</dc:title>
     </cc:Agent>
    </dc:creator>
   </cc:Work>
  </rdf:RDF>
 </metadata>
 <defs>
  <style type="text/css">*{stroke-linejoin: round; stroke-linecap: butt}</style>
 </defs>
 <g id="figure_1">
  <g id="patch_1">
   <path d="M 0 345.6 
L 460.8 345.6 
L 460.8 0 
L 0 0 
z
" style="fill: #ffffff"/>
  </g>
  <g id="axes_1">
   <g id="patch_2">
    <path d="M 57.6 307.584 
L 343.296 307.584 
L 343.296 41.472 
L 57.6 41.472 
z
" style="fill: #ffffff"/>
   </g>
   <g id="PathCollection_1">
    <path d="M 286.1568 307.584 
L 300.4416 307.584 
L 314.7264 307.584 
L 329.0112 307.584 
L 343.296 307.584 
L 343.296 294.2784 
L 343.296 280.9728 
L 343.296 267.6672 
L 343.296 254.3616 
L 343.296 252.6984 
L 341.5104 254.3616 
L 329.0112 266.004 
L 327.2256 267.6672 
L 314.7264 279.3096 
L 311.1552 280.9728 
L 300.4416 290.952 
L 296.8704 294.2784 
L 286.1568 304.2576 
L 282.5856 307.584 
z
" clip-path="url(#p540c733fc2)" style="fill: #48186a"/>
    <path d="M 71.8848 257.688 
L 86.1696 257.688 
L 89.7408 254.3616 
L 100.4544 244.3824 
L 104.0256 241.056 
L 114.7392 231.0768 
L 129.024 229.4136 
L 130.8096 227.7504 
L 143.3088 216.108 
L 145.0944 214.4448 
L 157.5936 202.8024 
L 159.3792 201.1392 
L 171.8784 189.4968 
L 186.1632 189.4968 
L 189.7344 187.8336 
L 186.1632 184.5072 
L 171.8784 184.5072 
L 161.1648 174.528 
L 157.5936 171.2016 
L 146.88 161.2224 
L 143.3088 157.896 
L 132.5952 147.9168 
L 130.8096 134.6112 
L 129.024 132.948 
L 114.7392 132.948 
L 102.24 121.3056 
L 100.4544 119.6424 
L 86.1696 119.6424 
L 71.8848 119.6424 
L 57.6 119.6424 
L 57.6 121.3056 
L 57.6 134.6112 
L 57.6 147.9168 
L 57.6 161.2224 
L 57.6 174.528 
L 57.6 187.8336 
L 57.6 201.1392 
L 57.6 214.4448 
L 57.6 227.7504 
L 57.6 241.056 
L 57.6 254.3616 
L 57.6 257.688 
z
" clip-path="url(#p540c733fc2)" style="fill: #48186a"/>
    <path d="M 343.296 162.8856 
L 343.296 161.2224 
L 343.296 147.9168 
L 343.296 134.6112 
L 343.296 121.3056 
L 343.296 108 
L 343.296 94.6944 
L 343.296 81.3888 
L 343.296 68.0832 
L 343.296 54.7776 
L 343.296 41.472 
L 339.7248 41.472 
L 329.0112 51.4512 
L 325.44 54.7776 
L 325.44 68.0832 
L 314.7264 78.0624 
L 312.9408 81.3888 
L 312.9408 94.6944 
L 312.9408 108 
L 314.7264 109.6632 
L 327.2256 121.3056 
L 327.2256 134.6112 
L 329.0112 136.2744 
L 341.5104 147.9168 
L 341.5104 161.2224 
z
" clip-path="url(#p540c733fc2)" style="fill: #48186a"/>
   </g>
   <g id="PathCollection_2">
    <path d="M 286.1568 304.2576 
L 296.8704 294.2784 
L 300.4416 290.952 
L 311.1552 280.9728 
L 314.7264 279.3096 
L 327.2256 267.6672 
L 329.0112 266.004 
L 341.5104 254.3616 
L 343.296 252.6984 
L 343.296 251.0352 
L 339.7248 254.3616 
L 329.0112 264.3408 
L 325.44 267.6672 
L 314.7264 277.6464 
L 307.584 280.9728 
L 300.4416 287.6256 
L 293.2992 294.2784 
L 286.1568 300.9312 
L 279.0144 307.584 
L 282.5856 307.584 
z
" clip-path="url(#p540c733fc2)" style="fill: #424086"/>
    <path d="M 71.8848 261.0144 
L 86.1696 261.0144 
L 93.312 254.3616 
L 100.4544 247.7088 
L 107.5968 241.056 
L 114.7392 234.4032 
L 129.024 231.0768 
L 132.5952 227.7504 
L 143.3088 217.7712 
L 146.88 214.4448 
L 157.5936 204.4656 
L 161.1648 201.1392 
L 171.8784 191.16 
L 186.1632 191.16 
L 193.3056 187.8336 
L 186.1632 181.1808 
L 171.8784 181.1808 
L 164.736 174.528 
L 157.5936 167.8752 
L 150.4512 161.2224 
L 143.3088 154.5696 
L 136.1664 147.9168 
L 132.5952 134.6112 
L 129.024 131.2848 
L 114.7392 131.2848 
L 104.0256 121.3056 
L 100.4544 117.9792 
L 86.1696 117.9792 
L 71.8848 117.9792 
L 57.6 117.9792 
L 57.6 119.6424 
L 71.8848 119.6424 
L 86.1696 119.6424 
L 100.4544 119.6424 
L 102.24 121.3056 
L 114.7392 132.948 
L 129.024 132.948 
L 130.8096 134.6112 
L 132.5952 147.9168 
L 143.3088 157.896 
L 146.88 161.2224 
L 157.5936 171.2016 
L 161.1648 174.528 
L 171.8784 184.5072 
L 186.1632 184.5072 
L 189.7344 187.8336 
L 186.1632 189.4968 
L 171.8784 189.4968 
L 159.3792 201.1392 
L 157.5936 202.8024 
L 145.0944 214.4448 
L 143.3088 216.108 
L 130.8096 227.7504 
L 129.024 229.4136 
L 114.7392 231.0768 
L 104.0256 241.056 
L 100.4544 244.3824 
L 89.7408 254.3616 
L 86.1696 257.688 
L 71.8848 257.688 
L 57.6 257.688 
L 57.6 261.0144 
z
" clip-path="url(#p540c733fc2)" style="fill: #424086"/>
    <path d="M 343.296 164.5488 
L 343.296 162.8856 
L 341.5104 161.2224 
L 341.5104 147.9168 
L 329.0112 136.2744 
L 327.2256 134.6112 
L 327.2256 121.3056 
L 314.7264 109.6632 
L 312.9408 108 
L 312.9408 94.6944 
L 312.9408 81.3888 
L 314.7264 78.0624 
L 325.44 68.0832 
L 325.44 54.7776 
L 329.0112 51.4512 
L 339.7248 41.472 
L 336.1536 41.472 
L 329.0112 48.1248 
L 321.8688 54.7776 
L 321.8688 68.0832 
L 314.7264 74.736 
L 311.1552 81.3888 
L 311.1552 94.6944 
L 311.1552 108 
L 314.7264 111.3264 
L 325.44 121.3056 
L 325.44 134.6112 
L 329.0112 137.9376 
L 339.7248 147.9168 
L 339.7248 161.2224 
z
" clip-path="url(#p540c733fc2)" style="fill: #424086"/>
   </g>
   <g id="PathCollection_3">
    <path d="M 286.1568 300.9312 
L 293.2992 294.2784 
L 300.4416 287.6256 
L 307.584 280.9728 
L 314.7264 277.6464 
L 325.44 267.6672 
L 329.0112 264.3408 
L 339.7248 254.3616 
L 343.296 251.0352 
L 343.296 249.372 
L 337.9392 254.3616 
L 329.0112 262.6776 
L 323.6544 267.6672 
L 314.7264 275.9832 
L 304.0128 280.9728 
L 300.4416 284.2992 
L 289.728 294.2784 
L 286.1568 297.6048 
L 275.4432 307.584 
L 279.0144 307.584 
z
" clip-path="url(#p540c733fc2)" style="fill: #33638d"/>
    <path d="M 71.8848 264.3408 
L 86.1696 264.3408 
L 96.8832 254.3616 
L 100.4544 251.0352 
L 111.168 241.056 
L 114.7392 237.7296 
L 129.024 232.74 
L 134.3808 227.7504 
L 143.3088 219.4344 
L 148.6656 214.4448 
L 157.5936 206.1288 
L 162.9504 201.1392 
L 171.8784 192.8232 
L 186.1632 192.8232 
L 196.8768 187.8336 
L 186.1632 177.8544 
L 171.8784 177.8544 
L 168.3072 174.528 
L 157.5936 164.5488 
L 154.0224 161.2224 
L 143.3088 151.2432 
L 139.7376 147.9168 
L 134.3808 134.6112 
L 129.024 129.6216 
L 114.7392 129.6216 
L 105.8112 121.3056 
L 100.4544 116.316 
L 86.1696 116.316 
L 71.8848 116.316 
L 57.6 116.316 
L 57.6 117.9792 
L 71.8848 117.9792 
L 86.1696 117.9792 
L 100.4544 117.9792 
L 104.0256 121.3056 
L 114.7392 131.2848 
L 129.024 131.2848 
L 132.5952 134.6112 
L 136.1664 147.9168 
L 143.3088 154.5696 
L 150.4512 161.2224 
L 157.5936 167.8752 
L 164.736 174.528 
L 171.8784 181.1808 
L 186.1632 181.1808 
L 193.3056 187.8336 
L 186.1632 191.16 
L 171.8784 191.16 
L 161.1648 201.1392 
L 157.5936 204.4656 
L 146.88 214.4448 
L 143.3088 217.7712 
L 132.5952 227.7504 
L 129.024 231.0768 
L 114.7392 234.4032 
L 107.5968 241.056 
L 100.4544 247.7088 
L 93.312 254.3616 
L 86.1696 261.0144 
L 71.8848 261.0144 
L 57.6 261.0144 
L 57.6 264.3408 
z
" clip-path="url(#p540c733fc2)" style="fill: #33638d"/>
    <path d="M 343.296 166.212 
L 343.296 164.5488 
L 339.7248 161.2224 
L 339.7248 147.9168 
L 329.0112 137.9376 
L 325.44 134.6112 
L 325.44 121.3056 
L 314.7264 111.3264 
L 311.1552 108 
L 311.1552 94.6944 
L 311.1552 81.3888 
L 314.7264 74.736 
L 321.8688 68.0832 
L 321.8688 54.7776 
L 329.0112 48.1248 
L 336.1536 41.472 
L 332.5824 41.472 
L 329.0112 44.7984 
L 318.2976 54.7776 
L 318.2976 68.0832 
L 314.7264 71.4096 
L 309.3696 81.3888 
L 309.3696 94.6944 
L 309.3696 108 
L 314.7264 112.9896 
L 323.6544 121.3056 
L 323.6544 134.6112 
L 329.0112 139.6008 
L 337.9392 147.9168 
L 337.9392 161.2224 
z
" clip-path="url(#p540c733fc2)" style="fill: #33638d"/>
   </g>
   <g id="PathCollection_4">
    <path d="M 71.8848 307.584 
L 86.1696 307.584 
L 86.1696 307.584 
L 100.4544 294.2784 
L 100.4544 294.2784 
L 100.4544 280.9728 
L 114.7392 267.6672 
L 114.7392 267.6672 
L 114.7392 254.3616 
L 114.7392 241.056 
L 129.024 234.4032 
L 136.1664 227.7504 
L 143.3088 221.0976 
L 150.4512 214.4448 
L 157.5936 207.792 
L 164.736 201.1392 
L 171.8784 194.4864 
L 186.1632 194.4864 
L 200.448 187.8336 
L 200.448 187.8336 
L 200.448 174.528 
L 200.448 161.2224 
L 200.448 147.9168 
L 200.448 147.9168 
L 186.1632 147.9168 
L 171.8784 147.9168 
L 157.5936 147.9168 
L 143.3088 147.9168 
L 136.1664 134.6112 
L 129.024 127.9584 
L 114.7392 127.9584 
L 107.5968 121.3056 
L 100.4544 114.6528 
L 86.1696 114.6528 
L 71.8848 114.6528 
L 57.6 114.6528 
L 57.6 116.316 
L 71.8848 116.316 
L 86.1696 116.316 
L 100.4544 116.316 
L 105.8112 121.3056 
L 114.7392 129.6216 
L 129.024 129.6216 
L 134.3808 134.6112 
L 139.7376 147.9168 
L 143.3088 151.2432 
L 154.0224 161.2224 
L 157.5936 164.5488 
L 168.3072 174.528 
L 171.8784 177.8544 
L 186.1632 177.8544 
L 196.8768 187.8336 
L 186.1632 192.8232 
L 171.8784 192.8232 
L 162.9504 201.1392 
L 157.5936 206.1288 
L 148.6656 214.4448 
L 143.3088 219.4344 
L 134.3808 227.7504 
L 129.024 232.74 
L 114.7392 237.7296 
L 111.168 241.056 
L 100.4544 251.0352 
L 96.8832 254.3616 
L 86.1696 264.3408 
L 71.8848 264.3408 
L 57.6 264.3408 
L 57.6 267.6672 
L 57.6 280.9728 
L 57.6 294.2784 
L 57.6 307.584 
z
" clip-path="url(#p540c733fc2)" style="fill: #26828e"/>
    <path d="M 243.3024 307.584 
L 257.5872 307.584 
L 271.872 307.584 
L 275.4432 307.584 
L 286.1568 297.6048 
L 289.728 294.2784 
L 300.4416 284.2992 
L 304.0128 280.9728 
L 314.7264 275.9832 
L 323.6544 267.6672 
L 329.0112 262.6776 
L 337.9392 254.3616 
L 343.296 249.372 
L 343.296 247.7088 
L 336.1536 254.3616 
L 329.0112 261.0144 
L 321.8688 267.6672 
L 314.7264 274.32 
L 300.4416 280.9728 
L 300.4416 280.9728 
L 286.1568 294.2784 
L 271.872 294.2784 
L 271.872 294.2784 
L 257.5872 307.584 
L 243.3024 307.584 
L 243.3024 307.584 
z
" clip-path="url(#p540c733fc2)" style="fill: #26828e"/>
    <path d="M 343.296 167.8752 
L 343.296 166.212 
L 337.9392 161.2224 
L 337.9392 147.9168 
L 329.0112 139.6008 
L 323.6544 134.6112 
L 323.6544 121.3056 
L 314.7264 112.9896 
L 309.3696 108 
L 309.3696 94.6944 
L 309.3696 81.3888 
L 314.7264 71.4096 
L 318.2976 68.0832 
L 318.2976 54.7776 
L 329.0112 44.7984 
L 332.5824 41.472 
L 329.0112 41.472 
L 314.7264 41.472 
L 300.4416 41.472 
L 300.4416 41.472 
L 300.4416 54.7776 
L 300.4416 54.7776 
L 314.7264 68.0832 
L 307.584 81.3888 
L 307.584 94.6944 
L 307.584 108 
L 314.7264 114.6528 
L 321.8688 121.3056 
L 321.8688 134.6112 
L 329.0112 141.264 
L 336.1536 147.9168 
L 336.1536 161.2224 
z
" clip-path="url(#p540c733fc2)" style="fill: #26828e"/>
   </g>
   <g id="PathCollection_5">
    <path d="M 100.4544 297.6048 
L 104.0256 294.2784 
L 104.0256 280.9728 
L 114.7392 270.9936 
L 118.3104 267.6672 
L 118.3104 254.3616 
L 118.3104 241.056 
L 129.024 236.0664 
L 137.952 227.7504 
L 143.3088 222.7608 
L 152.2368 214.4448 
L 157.5936 209.4552 
L 166.5216 201.1392 
L 171.8784 196.1496 
L 186.1632 196.1496 
L 200.448 191.16 
L 204.0192 187.8336 
L 204.0192 174.528 
L 204.0192 161.2224 
L 204.0192 147.9168 
L 200.448 144.5904 
L 186.1632 144.5904 
L 171.8784 144.5904 
L 157.5936 144.5904 
L 143.3088 144.5904 
L 137.952 134.6112 
L 129.024 126.2952 
L 114.7392 126.2952 
L 109.3824 121.3056 
L 100.4544 112.9896 
L 86.1696 112.9896 
L 71.8848 112.9896 
L 57.6 112.9896 
L 57.6 114.6528 
L 71.8848 114.6528 
L 86.1696 114.6528 
L 100.4544 114.6528 
L 107.5968 121.3056 
L 114.7392 127.9584 
L 129.024 127.9584 
L 136.1664 134.6112 
L 143.3088 147.9168 
L 157.5936 147.9168 
L 171.8784 147.9168 
L 186.1632 147.9168 
L 200.448 147.9168 
L 200.448 147.9168 
L 200.448 161.2224 
L 200.448 174.528 
L 200.448 187.8336 
L 200.448 187.8336 
L 186.1632 194.4864 
L 171.8784 194.4864 
L 164.736 201.1392 
L 157.5936 207.792 
L 150.4512 214.4448 
L 143.3088 221.0976 
L 136.1664 227.7504 
L 129.024 234.4032 
L 114.7392 241.056 
L 114.7392 254.3616 
L 114.7392 267.6672 
L 114.7392 267.6672 
L 100.4544 280.9728 
L 100.4544 294.2784 
L 100.4544 294.2784 
L 86.1696 307.584 
L 89.7408 307.584 
z
" clip-path="url(#p540c733fc2)" style="fill: #1fa088"/>
    <path d="M 243.3024 307.584 
L 257.5872 307.584 
L 271.872 294.2784 
L 271.872 294.2784 
L 286.1568 294.2784 
L 300.4416 280.9728 
L 300.4416 280.9728 
L 314.7264 274.32 
L 321.8688 267.6672 
L 329.0112 261.0144 
L 336.1536 254.3616 
L 343.296 247.7088 
L 343.296 246.0456 
L 334.368 254.3616 
L 329.0112 259.3512 
L 320.0832 267.6672 
L 314.7264 272.6568 
L 300.4416 277.6464 
L 296.8704 280.9728 
L 286.1568 290.952 
L 271.872 290.952 
L 268.3008 294.2784 
L 257.5872 304.2576 
L 243.3024 304.2576 
L 239.7312 307.584 
L 243.3024 307.584 
z
" clip-path="url(#p540c733fc2)" style="fill: #1fa088"/>
    <path d="M 343.296 169.5384 
L 343.296 167.8752 
L 336.1536 161.2224 
L 336.1536 147.9168 
L 329.0112 141.264 
L 321.8688 134.6112 
L 321.8688 121.3056 
L 314.7264 114.6528 
L 307.584 108 
L 307.584 94.6944 
L 307.584 81.3888 
L 314.7264 68.0832 
L 300.4416 54.7776 
L 300.4416 54.7776 
L 300.4416 41.472 
L 296.8704 41.472 
L 296.8704 54.7776 
L 300.4416 58.104 
L 311.1552 68.0832 
L 305.7984 81.3888 
L 305.7984 94.6944 
L 305.7984 108 
L 314.7264 116.316 
L 320.0832 121.3056 
L 320.0832 134.6112 
L 329.0112 142.9272 
L 334.368 147.9168 
L 334.368 161.2224 
z
" clip-path="url(#p540c733fc2)" style="fill: #1fa088"/>
   </g>
   <g id="PathCollection_6">
    <path d="M 100.4544 300.9312 
L 107.5968 294.2784 
L 107.5968 280.9728 
L 114.7392 274.32 
L 121.8816 267.6672 
L 121.8816 254.3616 
L 121.8816 241.056 
L 129.024 237.7296 
L 139.7376 227.7504 
L 143.3088 224.424 
L 154.0224 214.4448 
L 157.5936 211.1184 
L 168.3072 201.1392 
L 171.8784 197.8128 
L 186.1632 197.8128 
L 200.448 194.4864 
L 207.5904 187.8336 
L 207.5904 174.528 
L 207.5904 161.2224 
L 207.5904 147.9168 
L 200.448 141.264 
L 186.1632 141.264 
L 171.8784 141.264 
L 157.5936 141.264 
L 143.3088 141.264 
L 139.7376 134.6112 
L 129.024 124.632 
L 114.7392 124.632 
L 111.168 121.3056 
L 100.4544 111.3264 
L 86.1696 111.3264 
L 71.8848 111.3264 
L 57.6 111.3264 
L 57.6 112.9896 
L 71.8848 112.9896 
L 86.1696 112.9896 
L 100.4544 112.9896 
L 109.3824 121.3056 
L 114.7392 126.2952 
L 129.024 126.2952 
L 137.952 134.6112 
L 143.3088 144.5904 
L 157.5936 144.5904 
L 171.8784 144.5904 
L 186.1632 144.5904 
L 200.448 144.5904 
L 204.0192 147.9168 
L 204.0192 161.2224 
L 204.0192 174.528 
L 204.0192 187.8336 
L 200.448 191.16 
L 186.1632 196.1496 
L 171.8784 196.1496 
L 166.5216 201.1392 
L 157.5936 209.4552 
L 152.2368 214.4448 
L 143.3088 222.7608 
L 137.952 227.7504 
L 129.024 236.0664 
L 118.3104 241.056 
L 118.3104 254.3616 
L 118.3104 267.6672 
L 114.7392 270.9936 
L 104.0256 280.9728 
L 104.0256 294.2784 
L 100.4544 297.6048 
L 89.7408 307.584 
L 93.312 307.584 
z
" clip-path="url(#p540c733fc2)" style="fill: #3fbc73"/>
    <path d="M 243.3024 304.2576 
L 257.5872 304.2576 
L 268.3008 294.2784 
L 271.872 290.952 
L 286.1568 290.952 
L 296.8704 280.9728 
L 300.4416 277.6464 
L 314.7264 272.6568 
L 320.0832 267.6672 
L 329.0112 259.3512 
L 334.368 254.3616 
L 343.296 246.0456 
L 343.296 244.3824 
L 332.5824 254.3616 
L 329.0112 257.688 
L 318.2976 267.6672 
L 314.7264 270.9936 
L 300.4416 274.32 
L 293.2992 280.9728 
L 286.1568 287.6256 
L 271.872 287.6256 
L 264.7296 294.2784 
L 257.5872 300.9312 
L 243.3024 300.9312 
L 236.16 307.584 
L 239.7312 307.584 
z
" clip-path="url(#p540c733fc2)" style="fill: #3fbc73"/>
    <path d="M 343.296 171.2016 
L 343.296 169.5384 
L 334.368 161.2224 
L 334.368 147.9168 
L 329.0112 142.9272 
L 320.0832 134.6112 
L 320.0832 121.3056 
L 314.7264 116.316 
L 305.7984 108 
L 305.7984 94.6944 
L 305.7984 81.3888 
L 311.1552 68.0832 
L 300.4416 58.104 
L 296.8704 54.7776 
L 296.8704 41.472 
L 293.2992 41.472 
L 293.2992 54.7776 
L 300.4416 61.4304 
L 307.584 68.0832 
L 304.0128 81.3888 
L 304.0128 94.6944 
L 304.0128 108 
L 314.7264 117.9792 
L 318.2976 121.3056 
L 318.2976 134.6112 
L 329.0112 144.5904 
L 332.5824 147.9168 
L 332.5824 161.2224 
z
" clip-path="url(#p540c733fc2)" style="fill: #3fbc73"/>
   </g>
   <g id="PathCollection_7">
    <path d="M 100.4544 304.2576 
L 111.168 294.2784 
L 111.168 280.9728 
L 114.7392 277.6464 
L 125.4528 267.6672 
L 125.4528 254.3616 
L 125.4528 241.056 
L 129.024 239.3928 
L 141.5232 227.7504 
L 143.3088 226.0872 
L 155.808 214.4448 
L 157.5936 212.7816 
L 170.0928 201.1392 
L 171.8784 199.476 
L 186.1632 199.476 
L 200.448 197.8128 
L 211.1616 187.8336 
L 211.1616 174.528 
L 211.1616 161.2224 
L 211.1616 147.9168 
L 200.448 137.9376 
L 186.1632 137.9376 
L 171.8784 137.9376 
L 157.5936 137.9376 
L 143.3088 137.9376 
L 141.5232 134.6112 
L 129.024 122.9688 
L 114.7392 122.9688 
L 112.9536 121.3056 
L 100.4544 109.6632 
L 86.1696 109.6632 
L 71.8848 109.6632 
L 57.6 109.6632 
L 57.6 111.3264 
L 71.8848 111.3264 
L 86.1696 111.3264 
L 100.4544 111.3264 
L 111.168 121.3056 
L 114.7392 124.632 
L 129.024 124.632 
L 139.7376 134.6112 
L 143.3088 141.264 
L 157.5936 141.264 
L 171.8784 141.264 
L 186.1632 141.264 
L 200.448 141.264 
L 207.5904 147.9168 
L 207.5904 161.2224 
L 207.5904 174.528 
L 207.5904 187.8336 
L 200.448 194.4864 
L 186.1632 197.8128 
L 171.8784 197.8128 
L 168.3072 201.1392 
L 157.5936 211.1184 
L 154.0224 214.4448 
L 143.3088 224.424 
L 139.7376 227.7504 
L 129.024 237.7296 
L 121.8816 241.056 
L 121.8816 254.3616 
L 121.8816 267.6672 
L 114.7392 274.32 
L 107.5968 280.9728 
L 107.5968 294.2784 
L 100.4544 300.9312 
L 93.312 307.584 
L 96.8832 307.584 
z
" clip-path="url(#p540c733fc2)" style="fill: #84d44b"/>
    <path d="M 243.3024 300.9312 
L 257.5872 300.9312 
L 264.7296 294.2784 
L 271.872 287.6256 
L 286.1568 287.6256 
L 293.2992 280.9728 
L 300.4416 274.32 
L 314.7264 270.9936 
L 318.2976 267.6672 
L 329.0112 257.688 
L 332.5824 254.3616 
L 343.296 244.3824 
L 343.296 242.7192 
L 330.7968 254.3616 
L 329.0112 256.0248 
L 316.512 267.6672 
L 314.7264 269.3304 
L 300.4416 270.9936 
L 289.728 280.9728 
L 286.1568 284.2992 
L 271.872 284.2992 
L 261.1584 294.2784 
L 257.5872 297.6048 
L 243.3024 297.6048 
L 232.5888 307.584 
L 236.16 307.584 
z
" clip-path="url(#p540c733fc2)" style="fill: #84d44b"/>
    <path d="M 343.296 172.8648 
L 343.296 171.2016 
L 332.5824 161.2224 
L 332.5824 147.9168 
L 329.0112 144.5904 
L 318.2976 134.6112 
L 318.2976 121.3056 
L 314.7264 117.9792 
L 304.0128 108 
L 304.0128 94.6944 
L 304.0128 81.3888 
L 307.584 68.0832 
L 300.4416 61.4304 
L 293.2992 54.7776 
L 293.2992 41.472 
L 289.728 41.472 
L 289.728 54.7776 
L 300.4416 64.7568 
L 304.0128 68.0832 
L 302.2272 81.3888 
L 302.2272 94.6944 
L 302.2272 108 
L 314.7264 119.6424 
L 316.512 121.3056 
L 316.512 134.6112 
L 329.0112 146.2536 
L 330.7968 147.9168 
L 330.7968 161.2224 
z
" clip-path="url(#p540c733fc2)" style="fill: #84d44b"/>
   </g>
   <g id="PathCollection_8">
    <path d="M 100.4544 307.584 
L 114.7392 307.584 
L 129.024 307.584 
L 143.3088 307.584 
L 157.5936 307.584 
L 171.8784 307.584 
L 186.1632 307.584 
L 200.448 307.584 
L 214.7328 307.584 
L 229.0176 307.584 
L 232.5888 307.584 
L 243.3024 297.6048 
L 257.5872 297.6048 
L 261.1584 294.2784 
L 271.872 284.2992 
L 286.1568 284.2992 
L 289.728 280.9728 
L 300.4416 270.9936 
L 314.7264 269.3304 
L 316.512 267.6672 
L 329.0112 256.0248 
L 330.7968 254.3616 
L 343.296 242.7192 
L 343.296 241.056 
L 343.296 227.7504 
L 343.296 214.4448 
L 343.296 201.1392 
L 343.296 187.8336 
L 343.296 174.528 
L 343.296 172.8648 
L 330.7968 161.2224 
L 330.7968 147.9168 
L 329.0112 146.2536 
L 316.512 134.6112 
L 316.512 121.3056 
L 314.7264 119.6424 
L 302.2272 108 
L 302.2272 94.6944 
L 302.2272 81.3888 
L 304.0128 68.0832 
L 300.4416 64.7568 
L 289.728 54.7776 
L 289.728 41.472 
L 286.1568 41.472 
L 271.872 41.472 
L 257.5872 41.472 
L 243.3024 41.472 
L 229.0176 41.472 
L 214.7328 41.472 
L 200.448 41.472 
L 186.1632 41.472 
L 171.8784 41.472 
L 157.5936 41.472 
L 143.3088 41.472 
L 129.024 41.472 
L 114.7392 41.472 
L 100.4544 41.472 
L 86.1696 41.472 
L 71.8848 41.472 
L 57.6 41.472 
L 57.6 54.7776 
L 57.6 68.0832 
L 57.6 81.3888 
L 57.6 94.6944 
L 57.6 108 
L 57.6 109.6632 
L 71.8848 109.6632 
L 86.1696 109.6632 
L 100.4544 109.6632 
L 112.9536 121.3056 
L 114.7392 122.9688 
L 129.024 122.9688 
L 141.5232 134.6112 
L 143.3088 137.9376 
L 157.5936 137.9376 
L 171.8784 137.9376 
L 186.1632 137.9376 
L 200.448 137.9376 
L 211.1616 147.9168 
L 211.1616 161.2224 
L 211.1616 174.528 
L 211.1616 187.8336 
L 200.448 197.8128 
L 186.1632 199.476 
L 171.8784 199.476 
L 170.0928 201.1392 
L 157.5936 212.7816 
L 155.808 214.4448 
L 143.3088 226.0872 
L 141.5232 227.7504 
L 129.024 239.3928 
L 125.4528 241.056 
L 125.4528 254.3616 
L 125.4528 267.6672 
L 114.7392 277.6464 
L 111.168 280.9728 
L 111.168 294.2784 
L 100.4544 304.2576 
L 96.8832 307.584 
z
" clip-path="url(#p540c733fc2)" style="fill: #d8e219"/>
   </g>
   <g id="matplotlib.axis_1">
    <g id="xtick_1">
     <g id="line2d_1">
      <defs>
       <path id="m3f7e0a12c3" d="M 0 0 
L 0 3.5 
" style="stroke: #000000; stroke-width: 0.8"/>
      </defs>
      <g>
       <use xlink:href="#m3f7e0a12c3" x="57.6" y="307.584" style="stroke: #000000; stroke-width: 0.8"/>
      </g>
     </g>
     <g id="text_1">
      <!-- −1.2 -->
      <g transform="translate(45.458594 322.182437) scale(0.1 -0.1)">
       <defs>
        <path id="DejaVuSans-2212" d="M 678 2272 
L 4684 2272 
L 4684 1741 
L 678 1741 
L 678 2272 
z
" transform="scale(0.015625)"/>
        <path id="DejaVuSans-31" d="M 794 531 
L 1825 531 
L 1825 4091 
L 703 3866 
L 703 4441 
L 1819 4666 
L 2450 4666 
L 2450 531 
L 3481 531 
L 3481 0 
L 794 0 
L 794 531 
z
" transform="scale(0.015625)"/>
        <path id="DejaVuSans-2e" d="M 684 794 
L 1344 794 
L 1344 0 
L 684 0 
L 684 794 
z
" transform="scale(0.015625)"/>
        <path id="DejaVuSans-32" d="M 1228 531 
L 3431 531 
L 3431 0 
L 469 0 
L 469 531 
Q 828 903 1448 1529 
Q 2069 2156 2228 2338 
Q 2531 2678 2651 2914 
Q 2772 3150 2772 3378 
Q 2772 3750 2511 3984 
Q 2250 4219 1831 4219 
Q 1534 4219 1204 4116 
Q 875 4013 500 3803 
L 500 4441 
Q 881 4594 1212 4672 
Q 1544 4750 1819 4750 
Q 2544 4750 2975 4387 
Q 3406 4025 3406 3419 
Q 3406 3131 3298 2873 
Q 3191 2616 2906 2266 
Q 2828 2175 2409 1742 
Q 1991 1309 1228 531 
z
" transform="scale(0.015625)"/>
       </defs>
       <use xlink:href="#DejaVuSans-2212"/>
       <use xlink:href="#DejaVuSans-31" x="83.789062"/>
       <use xlink:href="#DejaVuSans-2e" x="147.412109"/>
       <use xlink:href="#DejaVuSans-32" x="179.199219"/>
      </g>
     </g>
    </g>
    <g id="xtick_2">
     <g id="line2d_2">
      <g>
       <use xlink:href="#m3f7e0a12c3" x="89.344" y="307.584" style="stroke: #000000; stroke-width: 0.8"/>
      </g>
     </g>
     <g id="text_2">
      <!-- −1.0 -->
      <g transform="translate(77.202594 322.182437) scale(0.1 -0.1)">
       <defs>
        <path id="DejaVuSans-30" d="M 2034 4250 
Q 1547 4250 1301 3770 
Q 1056 3291 1056 2328 
Q 1056 1369 1301 889 
Q 1547 409 2034 409 
Q 2525 409 2770 889 
Q 3016 1369 3016 2328 
Q 3016 3291 2770 3770 
Q 2525 4250 2034 4250 
z
M 2034 4750 
Q 2819 4750 3233 4129 
Q 3647 3509 3647 2328 
Q 3647 1150 3233 529 
Q 2819 -91 2034 -91 
Q 1250 -91 836 529 
Q 422 1150 422 2328 
Q 422 3509 836 4129 
Q 1250 4750 2034 4750 
z
" transform="scale(0.015625)"/>
       </defs>
       <use xlink:href="#DejaVuSans-2212"/>
       <use xlink:href="#DejaVuSans-31" x="83.789062"/>
       <use xlink:href="#DejaVuSans-2e" x="147.412109"/>
       <use xlink:href="#DejaVuSans-30" x="179.199219"/>
      </g>
     </g>
    </g>
    <g id="xtick_3">
     <g id="line2d_3">
      <g>
       <use xlink:href="#m3f7e0a12c3" x="121.088" y="307.584" style="stroke: #000000; stroke-width: 0.8"/>
      </g>
     </g>
     <g id="text_3">
      <!-- −0.8 -->
      <g transform="translate(108.946594 322.182437) scale(0.1 -0.1)">
       <defs>
        <path id="DejaVuSans-38" d="M 2034 2216 
Q 1584 2216 1326 1975 
Q 1069 1734 1069 1313 
Q 1069 891 1326 650 
Q 1584 409 2034 409 
Q 2484 409 2743 651 
Q 3003 894 3003 1313 
Q 3003 1734 2745 1975 
Q 2488 2216 2034 2216 
z
M 1403 2484 
Q 997 2584 770 2862 
Q 544 3141 544 3541 
Q 544 4100 942 4425 
Q 1341 4750 2034 4750 
Q 2731 4750 3128 4425 
Q 3525 4100 3525 3541 
Q 3525 3141 3298 2862 
Q 3072 2584 2669 2484 
Q 3125 2378 3379 2068 
Q 3634 1759 3634 1313 
Q 3634 634 3220 271 
Q 2806 -91 2034 -91 
Q 1263 -91 848 271 
Q 434 634 434 1313 
Q 434 1759 690 2068 
Q 947 2378 1403 2484 
z
M 1172 3481 
Q 1172 3119 1398 2916 
Q 1625 2713 2034 2713 
Q 2441 2713 2670 2916 
Q 2900 3119 2900 3481 
Q 2900 3844 2670 4047 
Q 2441 4250 2034 4250 
Q 1625 4250 1398 4047 
Q 1172 3844 1172 3481 
z
" transform="scale(0.015625)"/>
       </defs>
       <use xlink:href="#DejaVuSans-2212"/>
       <use xlink:href="#DejaVuSans-30" x="83.789062"/>
       <use xlink:href="#DejaVuSans-2e" x="147.412109"/>
       <use xlink:href="#DejaVuSans-38" x="179.199219"/>
      </g>
     </g>
    </g>
    <g id="xtick_4">
     <g id="line2d_4">
      <g>
       <use xlink:href="#m3f7e0a12c3" x="152.832" y="307.584" style="stroke: #000000; stroke-width: 0.8"/>
      </g>
     </g>
     <g id="text_4">
      <!-- −0.6 -->
      <g transform="translate(140.690594 322.182437) scale(0.1 -0.1)">
       <defs>
        <path id="DejaVuSans-36" d="M 2113 2584 
Q 1688 2584 1439 2293 
Q 1191 2003 1191 1497 
Q 1191 994 1439 701 
Q 1688 409 2113 409 
Q 2538 409 2786 701 
Q 3034 994 3034 1497 
Q 3034 2003 2786 2293 
Q 2538 2584 2113 2584 
z
M 3366 4563 
L 3366 3988 
Q 3128 4100 2886 4159 
Q 2644 4219 2406 4219 
Q 1781 4219 1451 3797 
Q 1122 3375 1075 2522 
Q 1259 2794 1537 2939 
Q 1816 3084 2150 3084 
Q 2853 3084 3261 2657 
Q 3669 2231 3669 1497 
Q 3669 778 3244 343 
Q 2819 -91 2113 -91 
Q 1303 -91 875 529 
Q 447 1150 447 2328 
Q 447 3434 972 4092 
Q 1497 4750 2381 4750 
Q 2619 4750 2861 4703 
Q 3103 4656 3366 4563 
z
" transform="scale(0.015625)"/>
       </defs>
       <use xlink:href="#DejaVuSans-2212"/>
       <use xlink:href="#DejaVuSans-30" x="83.789062"/>
       <use xlink:href="#DejaVuSans-2e" x="147.412109"/>
       <use xlink:href="#DejaVuSans-36" x="179.199219"/>
      </g>
     </g>
    </g>
    <g id="xtick_5">
     <g id="line2d_5">
      <g>
       <use xlink:href="#m3f7e0a12c3" x="184.576" y="307.584" style="stroke: #000000; stroke-width: 0.8"/>
      </g>
     </g>
     <g id="text_5">
      <!-- −0.4 -->
      <g transform="translate(172.434594 322.182437) scale(0.1 -0.1)">
       <defs>
        <path id="DejaVuSans-34" d="M 2419 4116 
L 825 1625 
L 2419 1625 
L 2419 4116 
z
M 2253 4666 
L 3047 4666 
L 3047 1625 
L 3713 1625 
L 3713 1100 
L 3047 1100 
L 3047 0 
L 2419 0 
L 2419 1100 
L 313 1100 
L 313 1709 
L 2253 4666 
z
" transform="scale(0.015625)"/>
       </defs>
       <use xlink:href="#DejaVuSans-2212"/>
       <use xlink:href="#DejaVuSans-30" x="83.789062"/>
       <use xlink:href="#DejaVuSans-2e" x="147.412109"/>
       <use xlink:href="#DejaVuSans-34" x="179.199219"/>
      </g>
     </g>
    </g>
    <g id="xtick_6">
     <g id="line2d_6">
      <g>
       <use xlink:href="#m3f7e0a12c3" x="216.32" y="307.584" style="stroke: #000000; stroke-width: 0.8"/>
      </g>
     </g>
     <g id="text_6">
      <!-- −0.2 -->
      <g transform="translate(204.178594 322.182437) scale(0.1 -0.1)">
       <use xlink:href="#DejaVuSans-2212"/>
       <use xlink:href="#DejaVuSans-30" x="83.789062"/>
       <use xlink:href="#DejaVuSans-2e" x="147.412109"/>
       <use xlink:href="#DejaVuSans-32" x="179.199219"/>
      </g>
     </g>
    </g>
    <g id="xtick_7">
     <g id="line2d_7">
      <g>
       <use xlink:href="#m3f7e0a12c3" x="248.064" y="307.584" style="stroke: #000000; stroke-width: 0.8"/>
      </g>
     </g>
     <g id="text_7">
      <!-- 0.0 -->
      <g transform="translate(240.112437 322.182437) scale(0.1 -0.1)">
       <use xlink:href="#DejaVuSans-30"/>
       <use xlink:href="#DejaVuSans-2e" x="63.623047"/>
       <use xlink:href="#DejaVuSans-30" x="95.410156"/>
      </g>
     </g>
    </g>
    <g id="xtick_8">
     <g id="line2d_8">
      <g>
       <use xlink:href="#m3f7e0a12c3" x="279.808" y="307.584" style="stroke: #000000; stroke-width: 0.8"/>
      </g>
     </g>
     <g id="text_8">
      <!-- 0.2 -->
      <g transform="translate(271.856437 322.182437) scale(0.1 -0.1)">
       <use xlink:href="#DejaVuSans-30"/>
       <use xlink:href="#DejaVuSans-2e" x="63.623047"/>
       <use xlink:href="#DejaVuSans-32" x="95.410156"/>
      </g>
     </g>
    </g>
    <g id="xtick_9">
     <g id="line2d_9">
      <g>
       <use xlink:href="#m3f7e0a12c3" x="311.552" y="307.584" style="stroke: #000000; stroke-width: 0.8"/>
      </g>
     </g>
     <g id="text_9">
      <!-- 0.4 -->
      <g transform="translate(303.600437 322.182437) scale(0.1 -0.1)">
       <use xlink:href="#DejaVuSans-30"/>
       <use xlink:href="#DejaVuSans-2e" x="63.623047"/>
       <use xlink:href="#DejaVuSans-34" x="95.410156"/>
      </g>
     </g>
    </g>
    <g id="xtick_10">
     <g id="line2d_10">
      <g>
       <use xlink:href="#m3f7e0a12c3" x="343.296" y="307.584" style="stroke: #000000; stroke-width: 0.8"/>
      </g>
     </g>
     <g id="text_10">
      <!-- 0.6 -->
      <g transform="translate(335.344437 322.182437) scale(0.1 -0.1)">
       <use xlink:href="#DejaVuSans-30"/>
       <use xlink:href="#DejaVuSans-2e" x="63.623047"/>
       <use xlink:href="#DejaVuSans-36" x="95.410156"/>
      </g>
     </g>
    </g>
    <g id="text_11">
     <!-- position -->
     <g transform="translate(180.643313 335.860562) scale(0.1 -0.1)">
      <defs>
       <path id="DejaVuSans-70" d="M 1159 525 
L 1159 -1331 
L 581 -1331 
L 581 3500 
L 1159 3500 
L 1159 2969 
Q 1341 3281 1617 3432 
Q 1894 3584 2278 3584 
Q 2916 3584 3314 3078 
Q 3713 2572 3713 1747 
Q 3713 922 3314 415 
Q 2916 -91 2278 -91 
Q 1894 -91 1617 61 
Q 1341 213 1159 525 
z
M 3116 1747 
Q 3116 2381 2855 2742 
Q 2594 3103 2138 3103 
Q 1681 3103 1420 2742 
Q 1159 2381 1159 1747 
Q 1159 1113 1420 752 
Q 1681 391 2138 391 
Q 2594 391 2855 752 
Q 3116 1113 3116 1747 
z
" transform="scale(0.015625)"/>
       <path id="DejaVuSans-6f" d="M 1959 3097 
Q 1497 3097 1228 2736 
Q 959 2375 959 1747 
Q 959 1119 1226 758 
Q 1494 397 1959 397 
Q 2419 397 2687 759 
Q 2956 1122 2956 1747 
Q 2956 2369 2687 2733 
Q 2419 3097 1959 3097 
z
M 1959 3584 
Q 2709 3584 3137 3096 
Q 3566 2609 3566 1747 
Q 3566 888 3137 398 
Q 2709 -91 1959 -91 
Q 1206 -91 779 398 
Q 353 888 353 1747 
Q 353 2609 779 3096 
Q 1206 3584 1959 3584 
z
" transform="scale(0.015625)"/>
       <path id="DejaVuSans-73" d="M 2834 3397 
L 2834 2853 
Q 2591 2978 2328 3040 
Q 2066 3103 1784 3103 
Q 1356 3103 1142 2972 
Q 928 2841 928 2578 
Q 928 2378 1081 2264 
Q 1234 2150 1697 2047 
L 1894 2003 
Q 2506 1872 2764 1633 
Q 3022 1394 3022 966 
Q 3022 478 2636 193 
Q 2250 -91 1575 -91 
Q 1294 -91 989 -36 
Q 684 19 347 128 
L 347 722 
Q 666 556 975 473 
Q 1284 391 1588 391 
Q 1994 391 2212 530 
Q 2431 669 2431 922 
Q 2431 1156 2273 1281 
Q 2116 1406 1581 1522 
L 1381 1569 
Q 847 1681 609 1914 
Q 372 2147 372 2553 
Q 372 3047 722 3315 
Q 1072 3584 1716 3584 
Q 2034 3584 2315 3537 
Q 2597 3491 2834 3397 
z
" transform="scale(0.015625)"/>
       <path id="DejaVuSans-69" d="M 603 3500 
L 1178 3500 
L 1178 0 
L 603 0 
L 603 3500 
z
M 603 4863 
L 1178 4863 
L 1178 4134 
L 603 4134 
L 603 4863 
z
" transform="scale(0.015625)"/>
       <path id="DejaVuSans-74" d="M 1172 4494 
L 1172 3500 
L 2356 3500 
L 2356 3053 
L 1172 3053 
L 1172 1153 
Q 1172 725 1289 603 
Q 1406 481 1766 481 
L 2356 481 
L 2356 0 
L 1766 0 
Q 1100 0 847 248 
Q 594 497 594 1153 
L 594 3053 
L 172 3053 
L 172 3500 
L 594 3500 
L 594 4494 
L 1172 4494 
z
" transform="scale(0.015625)"/>
       <path id="DejaVuSans-6e" d="M 3513 2113 
L 3513 0 
L 2938 0 
L 2938 2094 
Q 2938 2591 2744 2837 
Q 2550 3084 2163 3084 
Q 1697 3084 1428 2787 
Q 1159 2491 1159 1978 
L 1159 0 
L 581 0 
L 581 3500 
L 1159 3500 
L 1159 2956 
Q 1366 3272 1645 3428 
Q 1925 3584 2291 3584 
Q 2894 3584 3203 3211 
Q 3513 2838 3513 2113 
z
" transform="scale(0.015625)"/>
      </defs>
      <use xlink:href="#DejaVuSans-70"/>
      <use xlink:href="#DejaVuSans-6f" x="63.476562"/>
      <use xlink:href="#DejaVuSans-73" x="124.658203"/>
      <use xlink:href="#DejaVuSans-69" x="176.757812"/>
      <use xlink:href="#DejaVuSans-74" x="204.541016"/>
      <use xlink:href="#DejaVuSans-69" x="243.75"/>
      <use xlink:href="#DejaVuSans-6f" x="271.533203"/>
      <use xlink:href="#DejaVuSans-6e" x="332.714844"/>
     </g>
    </g>
   </g>
   <g id="matplotlib.axis_2">
    <g id="ytick_1">
     <g id="line2d_11">
      <defs>
       <path id="me945807ca4" d="M 0 0 
L -3.5 0 
" style="stroke: #000000; stroke-width: 0.8"/>
      </defs>
      <g>
       <use xlink:href="#me945807ca4" x="57.6" y="288.576" style="stroke: #000000; stroke-width: 0.8"/>
      </g>
     </g>
     <g id="text_12">
      <!-- −0.06 -->
      <g transform="translate(19.954687 292.375219) scale(0.1 -0.1)">
       <use xlink:href="#DejaVuSans-2212"/>
       <use xlink:href="#DejaVuSans-30" x="83.789062"/>
       <use xlink:href="#DejaVuSans-2e" x="147.412109"/>
       <use xlink:href="#DejaVuSans-30" x="179.199219"/>
       <use xlink:href="#DejaVuSans-36" x="242.822266"/>
      </g>
     </g>
    </g>
    <g id="ytick_2">
     <g id="line2d_12">
      <g>
       <use xlink:href="#me945807ca4" x="57.6" y="250.56" style="stroke: #000000; stroke-width: 0.8"/>
      </g>
     </g>
     <g id="text_13">
      <!-- −0.04 -->
      <g transform="translate(19.954687 254.359219) scale(0.1 -0.1)">
       <use xlink:href="#DejaVuSans-2212"/>
       <use xlink:href="#DejaVuSans-30" x="83.789062"/>
       <use xlink:href="#DejaVuSans-2e" x="147.412109"/>
       <use xlink:href="#DejaVuSans-30" x="179.199219"/>
       <use xlink:href="#DejaVuSans-34" x="242.822266"/>
      </g>
     </g>
    </g>
    <g id="ytick_3">
     <g id="line2d_13">
      <g>
       <use xlink:href="#me945807ca4" x="57.6" y="212.544" style="stroke: #000000; stroke-width: 0.8"/>
      </g>
     </g>
     <g id="text_14">
      <!-- −0.02 -->
      <g transform="translate(19.954687 216.343219) scale(0.1 -0.1)">
       <use xlink:href="#DejaVuSans-2212"/>
       <use xlink:href="#DejaVuSans-30" x="83.789062"/>
       <use xlink:href="#DejaVuSans-2e" x="147.412109"/>
       <use xlink:href="#DejaVuSans-30" x="179.199219"/>
       <use xlink:href="#DejaVuSans-32" x="242.822266"/>
      </g>
     </g>
    </g>
    <g id="ytick_4">
     <g id="line2d_14">
      <g>
       <use xlink:href="#me945807ca4" x="57.6" y="174.528" style="stroke: #000000; stroke-width: 0.8"/>
      </g>
     </g>
     <g id="text_15">
      <!-- 0.00 -->
      <g transform="translate(28.334375 178.327219) scale(0.1 -0.1)">
       <use xlink:href="#DejaVuSans-30"/>
       <use xlink:href="#DejaVuSans-2e" x="63.623047"/>
       <use xlink:href="#DejaVuSans-30" x="95.410156"/>
       <use xlink:href="#DejaVuSans-30" x="159.033203"/>
      </g>
     </g>
    </g>
    <g id="ytick_5">
     <g id="line2d_15">
      <g>
       <use xlink:href="#me945807ca4" x="57.6" y="136.512" style="stroke: #000000; stroke-width: 0.8"/>
      </g>
     </g>
     <g id="text_16">
      <!-- 0.02 -->
      <g transform="translate(28.334375 140.311219) scale(0.1 -0.1)">
       <use xlink:href="#DejaVuSans-30"/>
       <use xlink:href="#DejaVuSans-2e" x="63.623047"/>
       <use xlink:href="#DejaVuSans-30" x="95.410156"/>
       <use xlink:href="#DejaVuSans-32" x="159.033203"/>
      </g>
     </g>
    </g>
    <g id="ytick_6">
     <g id="line2d_16">
      <g>
       <use xlink:href="#me945807ca4" x="57.6" y="98.496" style="stroke: #000000; stroke-width: 0.8"/>
      </g>
     </g>
     <g id="text_17">
      <!-- 0.04 -->
      <g transform="translate(28.334375 102.295219) scale(0.1 -0.1)">
       <use xlink:href="#DejaVuSans-30"/>
       <use xlink:href="#DejaVuSans-2e" x="63.623047"/>
       <use xlink:href="#DejaVuSans-30" x="95.410156"/>
       <use xlink:href="#DejaVuSans-34" x="159.033203"/>
      </g>
     </g>
    </g>
    <g id="ytick_7">
     <g id="line2d_17">
      <g>
       <use xlink:href="#me945807ca4" x="57.6" y="60.48" style="stroke: #000000; stroke-width: 0.8"/>
      </g>
     </g>
     <g id="text_18">
      <!-- 0.06 -->
      <g transform="translate(28.334375 64.279219) scale(0.1 -0.1)">
       <use xlink:href="#DejaVuSans-30"/>
       <use xlink:href="#DejaVuSans-2e" x="63.623047"/>
       <use xlink:href="#DejaVuSans-30" x="95.410156"/>
       <use xlink:href="#DejaVuSans-36" x="159.033203"/>
      </g>
     </g>
    </g>
    <g id="text_19">
     <!-- velocity -->
     <g transform="translate(13.875 194.070188) rotate(-90) scale(0.1 -0.1)">
      <defs>
       <path id="DejaVuSans-76" d="M 191 3500 
L 800 3500 
L 1894 563 
L 2988 3500 
L 3597 3500 
L 2284 0 
L 1503 0 
L 191 3500 
z
" transform="scale(0.015625)"/>
       <path id="DejaVuSans-65" d="M 3597 1894 
L 3597 1613 
L 953 1613 
Q 991 1019 1311 708 
Q 1631 397 2203 397 
Q 2534 397 2845 478 
Q 3156 559 3463 722 
L 3463 178 
Q 3153 47 2828 -22 
Q 2503 -91 2169 -91 
Q 1331 -91 842 396 
Q 353 884 353 1716 
Q 353 2575 817 3079 
Q 1281 3584 2069 3584 
Q 2775 3584 3186 3129 
Q 3597 2675 3597 1894 
z
M 3022 2063 
Q 3016 2534 2758 2815 
Q 2500 3097 2075 3097 
Q 1594 3097 1305 2825 
Q 1016 2553 972 2059 
L 3022 2063 
z
" transform="scale(0.015625)"/>
       <path id="DejaVuSans-6c" d="M 603 4863 
L 1178 4863 
L 1178 0 
L 603 0 
L 603 4863 
z
" transform="scale(0.015625)"/>
       <path id="DejaVuSans-63" d="M 3122 3366 
L 3122 2828 
Q 2878 2963 2633 3030 
Q 2388 3097 2138 3097 
Q 1578 3097 1268 2742 
Q 959 2388 959 1747 
Q 959 1106 1268 751 
Q 1578 397 2138 397 
Q 2388 397 2633 464 
Q 2878 531 3122 666 
L 3122 134 
Q 2881 22 2623 -34 
Q 2366 -91 2075 -91 
Q 1284 -91 818 406 
Q 353 903 353 1747 
Q 353 2603 823 3093 
Q 1294 3584 2113 3584 
Q 2378 3584 2631 3529 
Q 2884 3475 3122 3366 
z
" transform="scale(0.015625)"/>
       <path id="DejaVuSans-79" d="M 2059 -325 
Q 1816 -950 1584 -1140 
Q 1353 -1331 966 -1331 
L 506 -1331 
L 506 -850 
L 844 -850 
Q 1081 -850 1212 -737 
Q 1344 -625 1503 -206 
L 1606 56 
L 191 3500 
L 800 3500 
L 1894 763 
L 2988 3500 
L 3597 3500 
L 2059 -325 
z
" transform="scale(0.015625)"/>
      </defs>
      <use xlink:href="#DejaVuSans-76"/>
      <use xlink:href="#DejaVuSans-65" x="59.179688"/>
      <use xlink:href="#DejaVuSans-6c" x="120.703125"/>
      <use xlink:href="#DejaVuSans-6f" x="148.486328"/>
      <use xlink:href="#DejaVuSans-63" x="209.667969"/>
      <use xlink:href="#DejaVuSans-69" x="264.648438"/>
      <use xlink:href="#DejaVuSans-74" x="292.431641"/>
      <use xlink:href="#DejaVuSans-79" x="331.640625"/>
     </g>
    </g>
   </g>
   <g id="patch_3">
    <path d="M 57.6 307.584 
L 57.6 41.472 
" style="fill: none; stroke: #000000; stroke-width: 0.8; stroke-linejoin: miter; stroke-linecap: square"/>
   </g>
   <g id="patch_4">
    <path d="M 343.296 307.584 
L 343.296 41.472 
" style="fill: none; stroke: #000000; stroke-width: 0.8; stroke-linejoin: miter; stroke-linecap: square"/>
   </g>
   <g id="patch_5">
    <path d="M 57.6 307.584 
L 343.296 307.584 
" style="fill: none; stroke: #000000; stroke-width: 0.8; stroke-linejoin: miter; stroke-linecap: square"/>
   </g>
   <g id="patch_6">
    <path d="M 57.6 41.472 
L 343.296 41.472 
" style="fill: none; stroke: #000000; stroke-width: 0.8; stroke-linejoin: miter; stroke-linecap: square"/>
   </g>
   <g id="text_20">
    <!-- Decision Space for Hyperbolic Model -->
    <g transform="translate(90.5805 35.472) scale(0.12 -0.12)">
     <defs>
      <path id="DejaVuSans-44" d="M 1259 4147 
L 1259 519 
L 2022 519 
Q 2988 519 3436 956 
Q 3884 1394 3884 2338 
Q 3884 3275 3436 3711 
Q 2988 4147 2022 4147 
L 1259 4147 
z
M 628 4666 
L 1925 4666 
Q 3281 4666 3915 4102 
Q 4550 3538 4550 2338 
Q 4550 1131 3912 565 
Q 3275 0 1925 0 
L 628 0 
L 628 4666 
z
" transform="scale(0.015625)"/>
      <path id="DejaVuSans-20" transform="scale(0.015625)"/>
      <path id="DejaVuSans-53" d="M 3425 4513 
L 3425 3897 
Q 3066 4069 2747 4153 
Q 2428 4238 2131 4238 
Q 1616 4238 1336 4038 
Q 1056 3838 1056 3469 
Q 1056 3159 1242 3001 
Q 1428 2844 1947 2747 
L 2328 2669 
Q 3034 2534 3370 2195 
Q 3706 1856 3706 1288 
Q 3706 609 3251 259 
Q 2797 -91 1919 -91 
Q 1588 -91 1214 -16 
Q 841 59 441 206 
L 441 856 
Q 825 641 1194 531 
Q 1563 422 1919 422 
Q 2459 422 2753 634 
Q 3047 847 3047 1241 
Q 3047 1584 2836 1778 
Q 2625 1972 2144 2069 
L 1759 2144 
Q 1053 2284 737 2584 
Q 422 2884 422 3419 
Q 422 4038 858 4394 
Q 1294 4750 2059 4750 
Q 2388 4750 2728 4690 
Q 3069 4631 3425 4513 
z
" transform="scale(0.015625)"/>
      <path id="DejaVuSans-61" d="M 2194 1759 
Q 1497 1759 1228 1600 
Q 959 1441 959 1056 
Q 959 750 1161 570 
Q 1363 391 1709 391 
Q 2188 391 2477 730 
Q 2766 1069 2766 1631 
L 2766 1759 
L 2194 1759 
z
M 3341 1997 
L 3341 0 
L 2766 0 
L 2766 531 
Q 2569 213 2275 61 
Q 1981 -91 1556 -91 
Q 1019 -91 701 211 
Q 384 513 384 1019 
Q 384 1609 779 1909 
Q 1175 2209 1959 2209 
L 2766 2209 
L 2766 2266 
Q 2766 2663 2505 2880 
Q 2244 3097 1772 3097 
Q 1472 3097 1187 3025 
Q 903 2953 641 2809 
L 641 3341 
Q 956 3463 1253 3523 
Q 1550 3584 1831 3584 
Q 2591 3584 2966 3190 
Q 3341 2797 3341 1997 
z
" transform="scale(0.015625)"/>
      <path id="DejaVuSans-66" d="M 2375 4863 
L 2375 4384 
L 1825 4384 
Q 1516 4384 1395 4259 
Q 1275 4134 1275 3809 
L 1275 3500 
L 2222 3500 
L 2222 3053 
L 1275 3053 
L 1275 0 
L 697 0 
L 697 3053 
L 147 3053 
L 147 3500 
L 697 3500 
L 697 3744 
Q 697 4328 969 4595 
Q 1241 4863 1831 4863 
L 2375 4863 
z
" transform="scale(0.015625)"/>
      <path id="DejaVuSans-72" d="M 2631 2963 
Q 2534 3019 2420 3045 
Q 2306 3072 2169 3072 
Q 1681 3072 1420 2755 
Q 1159 2438 1159 1844 
L 1159 0 
L 581 0 
L 581 3500 
L 1159 3500 
L 1159 2956 
Q 1341 3275 1631 3429 
Q 1922 3584 2338 3584 
Q 2397 3584 2469 3576 
Q 2541 3569 2628 3553 
L 2631 2963 
z
" transform="scale(0.015625)"/>
      <path id="DejaVuSans-48" d="M 628 4666 
L 1259 4666 
L 1259 2753 
L 3553 2753 
L 3553 4666 
L 4184 4666 
L 4184 0 
L 3553 0 
L 3553 2222 
L 1259 2222 
L 1259 0 
L 628 0 
L 628 4666 
z
" transform="scale(0.015625)"/>
      <path id="DejaVuSans-62" d="M 3116 1747 
Q 3116 2381 2855 2742 
Q 2594 3103 2138 3103 
Q 1681 3103 1420 2742 
Q 1159 2381 1159 1747 
Q 1159 1113 1420 752 
Q 1681 391 2138 391 
Q 2594 391 2855 752 
Q 3116 1113 3116 1747 
z
M 1159 2969 
Q 1341 3281 1617 3432 
Q 1894 3584 2278 3584 
Q 2916 3584 3314 3078 
Q 3713 2572 3713 1747 
Q 3713 922 3314 415 
Q 2916 -91 2278 -91 
Q 1894 -91 1617 61 
Q 1341 213 1159 525 
L 1159 0 
L 581 0 
L 581 4863 
L 1159 4863 
L 1159 2969 
z
" transform="scale(0.015625)"/>
      <path id="DejaVuSans-4d" d="M 628 4666 
L 1569 4666 
L 2759 1491 
L 3956 4666 
L 4897 4666 
L 4897 0 
L 4281 0 
L 4281 4097 
L 3078 897 
L 2444 897 
L 1241 4097 
L 1241 0 
L 628 0 
L 628 4666 
z
" transform="scale(0.015625)"/>
      <path id="DejaVuSans-64" d="M 2906 2969 
L 2906 4863 
L 3481 4863 
L 3481 0 
L 2906 0 
L 2906 525 
Q 2725 213 2448 61 
Q 2172 -91 1784 -91 
Q 1150 -91 751 415 
Q 353 922 353 1747 
Q 353 2572 751 3078 
Q 1150 3584 1784 3584 
Q 2172 3584 2448 3432 
Q 2725 3281 2906 2969 
z
M 947 1747 
Q 947 1113 1208 752 
Q 1469 391 1925 391 
Q 2381 391 2643 752 
Q 2906 1113 2906 1747 
Q 2906 2381 2643 2742 
Q 2381 3103 1925 3103 
Q 1469 3103 1208 2742 
Q 947 2381 947 1747 
z
" transform="scale(0.015625)"/>
     </defs>
     <use xlink:href="#DejaVuSans-44"/>
     <use xlink:href="#DejaVuSans-65" x="77.001953"/>
     <use xlink:href="#DejaVuSans-63" x="138.525391"/>
     <use xlink:href="#DejaVuSans-69" x="193.505859"/>
     <use xlink:href="#DejaVuSans-73" x="221.289062"/>
     <use xlink:href="#DejaVuSans-69" x="273.388672"/>
     <use xlink:href="#DejaVuSans-6f" x="301.171875"/>
     <use xlink:href="#DejaVuSans-6e" x="362.353516"/>
     <use xlink:href="#DejaVuSans-20" x="425.732422"/>
     <use xlink:href="#DejaVuSans-53" x="457.519531"/>
     <use xlink:href="#DejaVuSans-70" x="520.996094"/>
     <use xlink:href="#DejaVuSans-61" x="584.472656"/>
     <use xlink:href="#DejaVuSans-63" x="645.751953"/>
     <use xlink:href="#DejaVuSans-65" x="700.732422"/>
     <use xlink:href="#DejaVuSans-20" x="762.255859"/>
     <use xlink:href="#DejaVuSans-66" x="794.042969"/>
     <use xlink:href="#DejaVuSans-6f" x="829.248047"/>
     <use xlink:href="#DejaVuSans-72" x="890.429688"/>
     <use xlink:href="#DejaVuSans-20" x="931.542969"/>
     <use xlink:href="#DejaVuSans-48" x="963.330078"/>
     <use xlink:href="#DejaVuSans-79" x="1038.525391"/>
     <use xlink:href="#DejaVuSans-70" x="1097.705078"/>
     <use xlink:href="#DejaVuSans-65" x="1161.181641"/>
     <use xlink:href="#DejaVuSans-72" x="1222.705078"/>
     <use xlink:href="#DejaVuSans-62" x="1263.818359"/>
     <use xlink:href="#DejaVuSans-6f" x="1327.294922"/>
     <use xlink:href="#DejaVuSans-6c" x="1388.476562"/>
     <use xlink:href="#DejaVuSans-69" x="1416.259766"/>
     <use xlink:href="#DejaVuSans-63" x="1444.042969"/>
     <use xlink:href="#DejaVuSans-20" x="1499.023438"/>
     <use xlink:href="#DejaVuSans-4d" x="1530.810547"/>
     <use xlink:href="#DejaVuSans-6f" x="1617.089844"/>
     <use xlink:href="#DejaVuSans-64" x="1678.271484"/>
     <use xlink:href="#DejaVuSans-65" x="1741.748047"/>
     <use xlink:href="#DejaVuSans-6c" x="1803.271484"/>
    </g>
   </g>
  </g>
  <g id="axes_2">
   <g id="patch_7">
    <path d="M 361.152 307.584 
L 374.4576 307.584 
L 374.4576 41.472 
L 361.152 41.472 
z
" style="fill: #ffffff"/>
   </g>
   <g id="patch_8">
    <path clip-path="url(#p0dfd4498cb)" style="fill: #ffffff; stroke: #ffffff; stroke-width: 0.01; stroke-linejoin: miter"/>
   </g>
   <g id="QuadMesh_1">
    <path d="M 361.152 307.584 
L 374.4576 307.584 
L 374.4576 274.32 
L 361.152 274.32 
L 361.152 307.584 
" clip-path="url(#p0dfd4498cb)" style="fill: #48186a"/>
    <path d="M 361.152 274.32 
L 374.4576 274.32 
L 374.4576 241.056 
L 361.152 241.056 
L 361.152 274.32 
" clip-path="url(#p0dfd4498cb)" style="fill: #424086"/>
    <path d="M 361.152 241.056 
L 374.4576 241.056 
L 374.4576 207.792 
L 361.152 207.792 
L 361.152 241.056 
" clip-path="url(#p0dfd4498cb)" style="fill: #33638d"/>
    <path d="M 361.152 207.792 
L 374.4576 207.792 
L 374.4576 174.528 
L 361.152 174.528 
L 361.152 207.792 
" clip-path="url(#p0dfd4498cb)" style="fill: #26828e"/>
    <path d="M 361.152 174.528 
L 374.4576 174.528 
L 374.4576 141.264 
L 361.152 141.264 
L 361.152 174.528 
" clip-path="url(#p0dfd4498cb)" style="fill: #1fa088"/>
    <path d="M 361.152 141.264 
L 374.4576 141.264 
L 374.4576 108 
L 361.152 108 
L 361.152 141.264 
" clip-path="url(#p0dfd4498cb)" style="fill: #3fbc73"/>
    <path d="M 361.152 108 
L 374.4576 108 
L 374.4576 74.736 
L 361.152 74.736 
L 361.152 108 
" clip-path="url(#p0dfd4498cb)" style="fill: #84d44b"/>
    <path d="M 361.152 74.736 
L 374.4576 74.736 
L 374.4576 41.472 
L 361.152 41.472 
L 361.152 74.736 
" clip-path="url(#p0dfd4498cb)" style="fill: #d8e219"/>
   </g>
   <g id="matplotlib.axis_3"/>
   <g id="matplotlib.axis_4">
    <g id="ytick_8">
     <g id="line2d_18">
      <defs>
       <path id="m6a4d93f581" d="M 0 0 
L 3.5 0 
" style="stroke: #000000; stroke-width: 0.8"/>
      </defs>
      <g>
       <use xlink:href="#m6a4d93f581" x="374.4576" y="307.584" style="stroke: #000000; stroke-width: 0.8"/>
      </g>
     </g>
     <g id="text_21">
      <!-- 0.00 -->
      <g transform="translate(381.4576 311.383219) scale(0.1 -0.1)">
       <use xlink:href="#DejaVuSans-30"/>
       <use xlink:href="#DejaVuSans-2e" x="63.623047"/>
       <use xlink:href="#DejaVuSans-30" x="95.410156"/>
       <use xlink:href="#DejaVuSans-30" x="159.033203"/>
      </g>
     </g>
    </g>
    <g id="ytick_9">
     <g id="line2d_19">
      <g>
       <use xlink:href="#m6a4d93f581" x="374.4576" y="274.32" style="stroke: #000000; stroke-width: 0.8"/>
      </g>
     </g>
     <g id="text_22">
      <!-- 0.25 -->
      <g transform="translate(381.4576 278.119219) scale(0.1 -0.1)">
       <defs>
        <path id="DejaVuSans-35" d="M 691 4666 
L 3169 4666 
L 3169 4134 
L 1269 4134 
L 1269 2991 
Q 1406 3038 1543 3061 
Q 1681 3084 1819 3084 
Q 2600 3084 3056 2656 
Q 3513 2228 3513 1497 
Q 3513 744 3044 326 
Q 2575 -91 1722 -91 
Q 1428 -91 1123 -41 
Q 819 9 494 109 
L 494 744 
Q 775 591 1075 516 
Q 1375 441 1709 441 
Q 2250 441 2565 725 
Q 2881 1009 2881 1497 
Q 2881 1984 2565 2268 
Q 2250 2553 1709 2553 
Q 1456 2553 1204 2497 
Q 953 2441 691 2322 
L 691 4666 
z
" transform="scale(0.015625)"/>
       </defs>
       <use xlink:href="#DejaVuSans-30"/>
       <use xlink:href="#DejaVuSans-2e" x="63.623047"/>
       <use xlink:href="#DejaVuSans-32" x="95.410156"/>
       <use xlink:href="#DejaVuSans-35" x="159.033203"/>
      </g>
     </g>
    </g>
    <g id="ytick_10">
     <g id="line2d_20">
      <g>
       <use xlink:href="#m6a4d93f581" x="374.4576" y="241.056" style="stroke: #000000; stroke-width: 0.8"/>
      </g>
     </g>
     <g id="text_23">
      <!-- 0.50 -->
      <g transform="translate(381.4576 244.855219) scale(0.1 -0.1)">
       <use xlink:href="#DejaVuSans-30"/>
       <use xlink:href="#DejaVuSans-2e" x="63.623047"/>
       <use xlink:href="#DejaVuSans-35" x="95.410156"/>
       <use xlink:href="#DejaVuSans-30" x="159.033203"/>
      </g>
     </g>
    </g>
    <g id="ytick_11">
     <g id="line2d_21">
      <g>
       <use xlink:href="#m6a4d93f581" x="374.4576" y="207.792" style="stroke: #000000; stroke-width: 0.8"/>
      </g>
     </g>
     <g id="text_24">
      <!-- 0.75 -->
      <g transform="translate(381.4576 211.591219) scale(0.1 -0.1)">
       <defs>
        <path id="DejaVuSans-37" d="M 525 4666 
L 3525 4666 
L 3525 4397 
L 1831 0 
L 1172 0 
L 2766 4134 
L 525 4134 
L 525 4666 
z
" transform="scale(0.015625)"/>
       </defs>
       <use xlink:href="#DejaVuSans-30"/>
       <use xlink:href="#DejaVuSans-2e" x="63.623047"/>
       <use xlink:href="#DejaVuSans-37" x="95.410156"/>
       <use xlink:href="#DejaVuSans-35" x="159.033203"/>
      </g>
     </g>
    </g>
    <g id="ytick_12">
     <g id="line2d_22">
      <g>
       <use xlink:href="#m6a4d93f581" x="374.4576" y="174.528" style="stroke: #000000; stroke-width: 0.8"/>
      </g>
     </g>
     <g id="text_25">
      <!-- 1.00 -->
      <g transform="translate(381.4576 178.327219) scale(0.1 -0.1)">
       <use xlink:href="#DejaVuSans-31"/>
       <use xlink:href="#DejaVuSans-2e" x="63.623047"/>
       <use xlink:href="#DejaVuSans-30" x="95.410156"/>
       <use xlink:href="#DejaVuSans-30" x="159.033203"/>
      </g>
     </g>
    </g>
    <g id="ytick_13">
     <g id="line2d_23">
      <g>
       <use xlink:href="#m6a4d93f581" x="374.4576" y="141.264" style="stroke: #000000; stroke-width: 0.8"/>
      </g>
     </g>
     <g id="text_26">
      <!-- 1.25 -->
      <g transform="translate(381.4576 145.063219) scale(0.1 -0.1)">
       <use xlink:href="#DejaVuSans-31"/>
       <use xlink:href="#DejaVuSans-2e" x="63.623047"/>
       <use xlink:href="#DejaVuSans-32" x="95.410156"/>
       <use xlink:href="#DejaVuSans-35" x="159.033203"/>
      </g>
     </g>
    </g>
    <g id="ytick_14">
     <g id="line2d_24">
      <g>
       <use xlink:href="#m6a4d93f581" x="374.4576" y="108" style="stroke: #000000; stroke-width: 0.8"/>
      </g>
     </g>
     <g id="text_27">
      <!-- 1.50 -->
      <g transform="translate(381.4576 111.799219) scale(0.1 -0.1)">
       <use xlink:href="#DejaVuSans-31"/>
       <use xlink:href="#DejaVuSans-2e" x="63.623047"/>
       <use xlink:href="#DejaVuSans-35" x="95.410156"/>
       <use xlink:href="#DejaVuSans-30" x="159.033203"/>
      </g>
     </g>
    </g>
    <g id="ytick_15">
     <g id="line2d_25">
      <g>
       <use xlink:href="#m6a4d93f581" x="374.4576" y="74.736" style="stroke: #000000; stroke-width: 0.8"/>
      </g>
     </g>
     <g id="text_28">
      <!-- 1.75 -->
      <g transform="translate(381.4576 78.535219) scale(0.1 -0.1)">
       <use xlink:href="#DejaVuSans-31"/>
       <use xlink:href="#DejaVuSans-2e" x="63.623047"/>
       <use xlink:href="#DejaVuSans-37" x="95.410156"/>
       <use xlink:href="#DejaVuSans-35" x="159.033203"/>
      </g>
     </g>
    </g>
    <g id="ytick_16">
     <g id="line2d_26">
      <g>
       <use xlink:href="#m6a4d93f581" x="374.4576" y="41.472" style="stroke: #000000; stroke-width: 0.8"/>
      </g>
     </g>
     <g id="text_29">
      <!-- 2.00 -->
      <g transform="translate(381.4576 45.271219) scale(0.1 -0.1)">
       <use xlink:href="#DejaVuSans-32"/>
       <use xlink:href="#DejaVuSans-2e" x="63.623047"/>
       <use xlink:href="#DejaVuSans-30" x="95.410156"/>
       <use xlink:href="#DejaVuSans-30" x="159.033203"/>
      </g>
     </g>
    </g>
   </g>
   <g id="LineCollection_1"/>
   <g id="patch_9">
    <path d="M 361.152 307.584 
L 367.8048 307.584 
L 374.4576 307.584 
L 374.4576 41.472 
L 367.8048 41.472 
L 361.152 41.472 
L 361.152 307.584 
z
" style="fill: none; stroke: #000000; stroke-width: 0.8; stroke-linejoin: miter; stroke-linecap: square"/>
   </g>
  </g>
 </g>
 <defs>
  <clipPath id="p540c733fc2">
   <rect x="57.6" y="41.472" width="285.696" height="266.112"/>
  </clipPath>
  <clipPath id="p0dfd4498cb">
   <rect x="361.152" y="41.472" width="13.3056" height="266.112"/>
  </clipPath>
 </defs>
</svg>
