<?xml version="1.0" encoding="utf-8" standalone="no"?>
<!DOCTYPE svg PUBLIC "-//W3C//DTD SVG 1.1//EN"
  "http://www.w3.org/Graphics/SVG/1.1/DTD/svg11.dtd">
<svg xmlns:xlink="http://www.w3.org/1999/xlink" width="576pt" height="432pt" viewBox="0 0 576 432" xmlns="http://www.w3.org/2000/svg" version="1.1">
 <metadata>
  <rdf:RDF xmlns:dc="http://purl.org/dc/elements/1.1/" xmlns:cc="http://creativecommons.org/ns#" xmlns:rdf="http://www.w3.org/1999/02/22-rdf-syntax-ns#">
   <cc:Work>
    <dc:type rdf:resource="http://purl.org/dc/dcmitype/StillImage"/>
    <dc:date>2023-03-07T21:38:03.005981</dc:date>
    <dc:format>image/svg+xml</dc:format>
    <dc:creator>
     <cc:Agent>
      <dc:title>Matplotlib v3.6.2, https://matplotlib.org/</dc:title>
     </cc:Agent>
    </dc:creator>
   </cc:Work>
  </rdf:RDF>
 </metadata>
 <defs>
  <style type="text/css">*{stroke-linejoin: round; stroke-linecap: butt}</style>
 </defs>
 <g id="figure_1">
  <g id="patch_1">
   <path d="M 0 432 
L 576 432 
L 576 0 
L 0 0 
z
" style="fill: #ffffff"/>
  </g>
  <g id="axes_1">
   <g id="patch_2">
    <path d="M 72 384.48 
L 518.4 384.48 
L 518.4 51.84 
L 72 51.84 
z
" style="fill: #ffffff"/>
   </g>
   <g id="matplotlib.axis_1">
    <g id="xtick_1">
     <g id="line2d_1">
      <defs>
       <path id="mbc95c299ec" d="M 0 0 
L 0 3.5 
" style="stroke: #000000; stroke-width: 0.8"/>
      </defs>
      <g>
       <use xlink:href="#mbc95c299ec" x="80.353427" y="384.48" style="stroke: #000000; stroke-width: 0.8"/>
      </g>
     </g>
     <g id="text_1">
      <!-- −1.25 -->
      <g transform="translate(65.030771 399.078438) scale(0.1 -0.1)">
       <defs>
        <path id="DejaVuSans-2212" d="M 678 2272 
L 4684 2272 
L 4684 1741 
L 678 1741 
L 678 2272 
z
" transform="scale(0.015625)"/>
        <path id="DejaVuSans-31" d="M 794 531 
L 1825 531 
L 1825 4091 
L 703 3866 
L 703 4441 
L 1819 4666 
L 2450 4666 
L 2450 531 
L 3481 531 
L 3481 0 
L 794 0 
L 794 531 
z
" transform="scale(0.015625)"/>
        <path id="DejaVuSans-2e" d="M 684 794 
L 1344 794 
L 1344 0 
L 684 0 
L 684 794 
z
" transform="scale(0.015625)"/>
        <path id="DejaVuSans-32" d="M 1228 531 
L 3431 531 
L 3431 0 
L 469 0 
L 469 531 
Q 828 903 1448 1529 
Q 2069 2156 2228 2338 
Q 2531 2678 2651 2914 
Q 2772 3150 2772 3378 
Q 2772 3750 2511 3984 
Q 2250 4219 1831 4219 
Q 1534 4219 1204 4116 
Q 875 4013 500 3803 
L 500 4441 
Q 881 4594 1212 4672 
Q 1544 4750 1819 4750 
Q 2544 4750 2975 4387 
Q 3406 4025 3406 3419 
Q 3406 3131 3298 2873 
Q 3191 2616 2906 2266 
Q 2828 2175 2409 1742 
Q 1991 1309 1228 531 
z
" transform="scale(0.015625)"/>
        <path id="DejaVuSans-35" d="M 691 4666 
L 3169 4666 
L 3169 4134 
L 1269 4134 
L 1269 2991 
Q 1406 3038 1543 3061 
Q 1681 3084 1819 3084 
Q 2600 3084 3056 2656 
Q 3513 2228 3513 1497 
Q 3513 744 3044 326 
Q 2575 -91 1722 -91 
Q 1428 -91 1123 -41 
Q 819 9 494 109 
L 494 744 
Q 775 591 1075 516 
Q 1375 441 1709 441 
Q 2250 441 2565 725 
Q 2881 1009 2881 1497 
Q 2881 1984 2565 2268 
Q 2250 2553 1709 2553 
Q 1456 2553 1204 2497 
Q 953 2441 691 2322 
L 691 4666 
z
" transform="scale(0.015625)"/>
       </defs>
       <use xlink:href="#DejaVuSans-2212"/>
       <use xlink:href="#DejaVuSans-31" x="83.789062"/>
       <use xlink:href="#DejaVuSans-2e" x="147.412109"/>
       <use xlink:href="#DejaVuSans-32" x="179.199219"/>
       <use xlink:href="#DejaVuSans-35" x="242.822266"/>
      </g>
     </g>
    </g>
    <g id="xtick_2">
     <g id="line2d_2">
      <g>
       <use xlink:href="#mbc95c299ec" x="140.040895" y="384.48" style="stroke: #000000; stroke-width: 0.8"/>
      </g>
     </g>
     <g id="text_2">
      <!-- −1.00 -->
      <g transform="translate(124.718238 399.078438) scale(0.1 -0.1)">
       <defs>
        <path id="DejaVuSans-30" d="M 2034 4250 
Q 1547 4250 1301 3770 
Q 1056 3291 1056 2328 
Q 1056 1369 1301 889 
Q 1547 409 2034 409 
Q 2525 409 2770 889 
Q 3016 1369 3016 2328 
Q 3016 3291 2770 3770 
Q 2525 4250 2034 4250 
z
M 2034 4750 
Q 2819 4750 3233 4129 
Q 3647 3509 3647 2328 
Q 3647 1150 3233 529 
Q 2819 -91 2034 -91 
Q 1250 -91 836 529 
Q 422 1150 422 2328 
Q 422 3509 836 4129 
Q 1250 4750 2034 4750 
z
" transform="scale(0.015625)"/>
       </defs>
       <use xlink:href="#DejaVuSans-2212"/>
       <use xlink:href="#DejaVuSans-31" x="83.789062"/>
       <use xlink:href="#DejaVuSans-2e" x="147.412109"/>
       <use xlink:href="#DejaVuSans-30" x="179.199219"/>
       <use xlink:href="#DejaVuSans-30" x="242.822266"/>
      </g>
     </g>
    </g>
    <g id="xtick_3">
     <g id="line2d_3">
      <g>
       <use xlink:href="#mbc95c299ec" x="199.728362" y="384.48" style="stroke: #000000; stroke-width: 0.8"/>
      </g>
     </g>
     <g id="text_3">
      <!-- −0.75 -->
      <g transform="translate(184.405706 399.078438) scale(0.1 -0.1)">
       <defs>
        <path id="DejaVuSans-37" d="M 525 4666 
L 3525 4666 
L 3525 4397 
L 1831 0 
L 1172 0 
L 2766 4134 
L 525 4134 
L 525 4666 
z
" transform="scale(0.015625)"/>
       </defs>
       <use xlink:href="#DejaVuSans-2212"/>
       <use xlink:href="#DejaVuSans-30" x="83.789062"/>
       <use xlink:href="#DejaVuSans-2e" x="147.412109"/>
       <use xlink:href="#DejaVuSans-37" x="179.199219"/>
       <use xlink:href="#DejaVuSans-35" x="242.822266"/>
      </g>
     </g>
    </g>
    <g id="xtick_4">
     <g id="line2d_4">
      <g>
       <use xlink:href="#mbc95c299ec" x="259.41583" y="384.48" style="stroke: #000000; stroke-width: 0.8"/>
      </g>
     </g>
     <g id="text_4">
      <!-- −0.50 -->
      <g transform="translate(244.093174 399.078438) scale(0.1 -0.1)">
       <use xlink:href="#DejaVuSans-2212"/>
       <use xlink:href="#DejaVuSans-30" x="83.789062"/>
       <use xlink:href="#DejaVuSans-2e" x="147.412109"/>
       <use xlink:href="#DejaVuSans-35" x="179.199219"/>
       <use xlink:href="#DejaVuSans-30" x="242.822266"/>
      </g>
     </g>
    </g>
    <g id="xtick_5">
     <g id="line2d_5">
      <g>
       <use xlink:href="#mbc95c299ec" x="319.103297" y="384.48" style="stroke: #000000; stroke-width: 0.8"/>
      </g>
     </g>
     <g id="text_5">
      <!-- −0.25 -->
      <g transform="translate(303.780641 399.078438) scale(0.1 -0.1)">
       <use xlink:href="#DejaVuSans-2212"/>
       <use xlink:href="#DejaVuSans-30" x="83.789062"/>
       <use xlink:href="#DejaVuSans-2e" x="147.412109"/>
       <use xlink:href="#DejaVuSans-32" x="179.199219"/>
       <use xlink:href="#DejaVuSans-35" x="242.822266"/>
      </g>
     </g>
    </g>
    <g id="xtick_6">
     <g id="line2d_6">
      <g>
       <use xlink:href="#mbc95c299ec" x="378.790765" y="384.48" style="stroke: #000000; stroke-width: 0.8"/>
      </g>
     </g>
     <g id="text_6">
      <!-- 0.00 -->
      <g transform="translate(367.657953 399.078438) scale(0.1 -0.1)">
       <use xlink:href="#DejaVuSans-30"/>
       <use xlink:href="#DejaVuSans-2e" x="63.623047"/>
       <use xlink:href="#DejaVuSans-30" x="95.410156"/>
       <use xlink:href="#DejaVuSans-30" x="159.033203"/>
      </g>
     </g>
    </g>
    <g id="xtick_7">
     <g id="line2d_7">
      <g>
       <use xlink:href="#mbc95c299ec" x="438.478233" y="384.48" style="stroke: #000000; stroke-width: 0.8"/>
      </g>
     </g>
     <g id="text_7">
      <!-- 0.25 -->
      <g transform="translate(427.34542 399.078438) scale(0.1 -0.1)">
       <use xlink:href="#DejaVuSans-30"/>
       <use xlink:href="#DejaVuSans-2e" x="63.623047"/>
       <use xlink:href="#DejaVuSans-32" x="95.410156"/>
       <use xlink:href="#DejaVuSans-35" x="159.033203"/>
      </g>
     </g>
    </g>
    <g id="xtick_8">
     <g id="line2d_8">
      <g>
       <use xlink:href="#mbc95c299ec" x="498.1657" y="384.48" style="stroke: #000000; stroke-width: 0.8"/>
      </g>
     </g>
     <g id="text_8">
      <!-- 0.50 -->
      <g transform="translate(487.032888 399.078438) scale(0.1 -0.1)">
       <use xlink:href="#DejaVuSans-30"/>
       <use xlink:href="#DejaVuSans-2e" x="63.623047"/>
       <use xlink:href="#DejaVuSans-35" x="95.410156"/>
       <use xlink:href="#DejaVuSans-30" x="159.033203"/>
      </g>
     </g>
    </g>
    <g id="text_9">
     <!-- Position -->
     <g transform="translate(275.735937 412.756563) scale(0.1 -0.1)">
      <defs>
       <path id="DejaVuSans-50" d="M 1259 4147 
L 1259 2394 
L 2053 2394 
Q 2494 2394 2734 2622 
Q 2975 2850 2975 3272 
Q 2975 3691 2734 3919 
Q 2494 4147 2053 4147 
L 1259 4147 
z
M 628 4666 
L 2053 4666 
Q 2838 4666 3239 4311 
Q 3641 3956 3641 3272 
Q 3641 2581 3239 2228 
Q 2838 1875 2053 1875 
L 1259 1875 
L 1259 0 
L 628 0 
L 628 4666 
z
" transform="scale(0.015625)"/>
       <path id="DejaVuSans-6f" d="M 1959 3097 
Q 1497 3097 1228 2736 
Q 959 2375 959 1747 
Q 959 1119 1226 758 
Q 1494 397 1959 397 
Q 2419 397 2687 759 
Q 2956 1122 2956 1747 
Q 2956 2369 2687 2733 
Q 2419 3097 1959 3097 
z
M 1959 3584 
Q 2709 3584 3137 3096 
Q 3566 2609 3566 1747 
Q 3566 888 3137 398 
Q 2709 -91 1959 -91 
Q 1206 -91 779 398 
Q 353 888 353 1747 
Q 353 2609 779 3096 
Q 1206 3584 1959 3584 
z
" transform="scale(0.015625)"/>
       <path id="DejaVuSans-73" d="M 2834 3397 
L 2834 2853 
Q 2591 2978 2328 3040 
Q 2066 3103 1784 3103 
Q 1356 3103 1142 2972 
Q 928 2841 928 2578 
Q 928 2378 1081 2264 
Q 1234 2150 1697 2047 
L 1894 2003 
Q 2506 1872 2764 1633 
Q 3022 1394 3022 966 
Q 3022 478 2636 193 
Q 2250 -91 1575 -91 
Q 1294 -91 989 -36 
Q 684 19 347 128 
L 347 722 
Q 666 556 975 473 
Q 1284 391 1588 391 
Q 1994 391 2212 530 
Q 2431 669 2431 922 
Q 2431 1156 2273 1281 
Q 2116 1406 1581 1522 
L 1381 1569 
Q 847 1681 609 1914 
Q 372 2147 372 2553 
Q 372 3047 722 3315 
Q 1072 3584 1716 3584 
Q 2034 3584 2315 3537 
Q 2597 3491 2834 3397 
z
" transform="scale(0.015625)"/>
       <path id="DejaVuSans-69" d="M 603 3500 
L 1178 3500 
L 1178 0 
L 603 0 
L 603 3500 
z
M 603 4863 
L 1178 4863 
L 1178 4134 
L 603 4134 
L 603 4863 
z
" transform="scale(0.015625)"/>
       <path id="DejaVuSans-74" d="M 1172 4494 
L 1172 3500 
L 2356 3500 
L 2356 3053 
L 1172 3053 
L 1172 1153 
Q 1172 725 1289 603 
Q 1406 481 1766 481 
L 2356 481 
L 2356 0 
L 1766 0 
Q 1100 0 847 248 
Q 594 497 594 1153 
L 594 3053 
L 172 3053 
L 172 3500 
L 594 3500 
L 594 4494 
L 1172 4494 
z
" transform="scale(0.015625)"/>
       <path id="DejaVuSans-6e" d="M 3513 2113 
L 3513 0 
L 2938 0 
L 2938 2094 
Q 2938 2591 2744 2837 
Q 2550 3084 2163 3084 
Q 1697 3084 1428 2787 
Q 1159 2491 1159 1978 
L 1159 0 
L 581 0 
L 581 3500 
L 1159 3500 
L 1159 2956 
Q 1366 3272 1645 3428 
Q 1925 3584 2291 3584 
Q 2894 3584 3203 3211 
Q 3513 2838 3513 2113 
z
" transform="scale(0.015625)"/>
      </defs>
      <use xlink:href="#DejaVuSans-50"/>
      <use xlink:href="#DejaVuSans-6f" x="56.677734"/>
      <use xlink:href="#DejaVuSans-73" x="117.859375"/>
      <use xlink:href="#DejaVuSans-69" x="169.958984"/>
      <use xlink:href="#DejaVuSans-74" x="197.742188"/>
      <use xlink:href="#DejaVuSans-69" x="236.951172"/>
      <use xlink:href="#DejaVuSans-6f" x="264.734375"/>
      <use xlink:href="#DejaVuSans-6e" x="325.916016"/>
     </g>
    </g>
   </g>
   <g id="matplotlib.axis_2">
    <g id="ytick_1">
     <g id="line2d_9">
      <defs>
       <path id="mebc0cc9e09" d="M 0 0 
L -3.5 0 
" style="stroke: #000000; stroke-width: 0.8"/>
      </defs>
      <g>
       <use xlink:href="#mebc0cc9e09" x="72" y="349.925134" style="stroke: #000000; stroke-width: 0.8"/>
      </g>
     </g>
     <g id="text_10">
      <!-- −0.04 -->
      <g transform="translate(34.354687 353.724353) scale(0.1 -0.1)">
       <defs>
        <path id="DejaVuSans-34" d="M 2419 4116 
L 825 1625 
L 2419 1625 
L 2419 4116 
z
M 2253 4666 
L 3047 4666 
L 3047 1625 
L 3713 1625 
L 3713 1100 
L 3047 1100 
L 3047 0 
L 2419 0 
L 2419 1100 
L 313 1100 
L 313 1709 
L 2253 4666 
z
" transform="scale(0.015625)"/>
       </defs>
       <use xlink:href="#DejaVuSans-2212"/>
       <use xlink:href="#DejaVuSans-30" x="83.789062"/>
       <use xlink:href="#DejaVuSans-2e" x="147.412109"/>
       <use xlink:href="#DejaVuSans-30" x="179.199219"/>
       <use xlink:href="#DejaVuSans-34" x="242.822266"/>
      </g>
     </g>
    </g>
    <g id="ytick_2">
     <g id="line2d_10">
      <g>
       <use xlink:href="#mebc0cc9e09" x="72" y="291.009212" style="stroke: #000000; stroke-width: 0.8"/>
      </g>
     </g>
     <g id="text_11">
      <!-- −0.02 -->
      <g transform="translate(34.354687 294.80843) scale(0.1 -0.1)">
       <use xlink:href="#DejaVuSans-2212"/>
       <use xlink:href="#DejaVuSans-30" x="83.789062"/>
       <use xlink:href="#DejaVuSans-2e" x="147.412109"/>
       <use xlink:href="#DejaVuSans-30" x="179.199219"/>
       <use xlink:href="#DejaVuSans-32" x="242.822266"/>
      </g>
     </g>
    </g>
    <g id="ytick_3">
     <g id="line2d_11">
      <g>
       <use xlink:href="#mebc0cc9e09" x="72" y="232.09329" style="stroke: #000000; stroke-width: 0.8"/>
      </g>
     </g>
     <g id="text_12">
      <!-- 0.00 -->
      <g transform="translate(42.734375 235.892508) scale(0.1 -0.1)">
       <use xlink:href="#DejaVuSans-30"/>
       <use xlink:href="#DejaVuSans-2e" x="63.623047"/>
       <use xlink:href="#DejaVuSans-30" x="95.410156"/>
       <use xlink:href="#DejaVuSans-30" x="159.033203"/>
      </g>
     </g>
    </g>
    <g id="ytick_4">
     <g id="line2d_12">
      <g>
       <use xlink:href="#mebc0cc9e09" x="72" y="173.177367" style="stroke: #000000; stroke-width: 0.8"/>
      </g>
     </g>
     <g id="text_13">
      <!-- 0.02 -->
      <g transform="translate(42.734375 176.976586) scale(0.1 -0.1)">
       <use xlink:href="#DejaVuSans-30"/>
       <use xlink:href="#DejaVuSans-2e" x="63.623047"/>
       <use xlink:href="#DejaVuSans-30" x="95.410156"/>
       <use xlink:href="#DejaVuSans-32" x="159.033203"/>
      </g>
     </g>
    </g>
    <g id="ytick_5">
     <g id="line2d_13">
      <g>
       <use xlink:href="#mebc0cc9e09" x="72" y="114.261445" style="stroke: #000000; stroke-width: 0.8"/>
      </g>
     </g>
     <g id="text_14">
      <!-- 0.04 -->
      <g transform="translate(42.734375 118.060664) scale(0.1 -0.1)">
       <use xlink:href="#DejaVuSans-30"/>
       <use xlink:href="#DejaVuSans-2e" x="63.623047"/>
       <use xlink:href="#DejaVuSans-30" x="95.410156"/>
       <use xlink:href="#DejaVuSans-34" x="159.033203"/>
      </g>
     </g>
    </g>
    <g id="ytick_6">
     <g id="line2d_14">
      <g>
       <use xlink:href="#mebc0cc9e09" x="72" y="55.345523" style="stroke: #000000; stroke-width: 0.8"/>
      </g>
     </g>
     <g id="text_15">
      <!-- 0.06 -->
      <g transform="translate(42.734375 59.144742) scale(0.1 -0.1)">
       <defs>
        <path id="DejaVuSans-36" d="M 2113 2584 
Q 1688 2584 1439 2293 
Q 1191 2003 1191 1497 
Q 1191 994 1439 701 
Q 1688 409 2113 409 
Q 2538 409 2786 701 
Q 3034 994 3034 1497 
Q 3034 2003 2786 2293 
Q 2538 2584 2113 2584 
z
M 3366 4563 
L 3366 3988 
Q 3128 4100 2886 4159 
Q 2644 4219 2406 4219 
Q 1781 4219 1451 3797 
Q 1122 3375 1075 2522 
Q 1259 2794 1537 2939 
Q 1816 3084 2150 3084 
Q 2853 3084 3261 2657 
Q 3669 2231 3669 1497 
Q 3669 778 3244 343 
Q 2819 -91 2113 -91 
Q 1303 -91 875 529 
Q 447 1150 447 2328 
Q 447 3434 972 4092 
Q 1497 4750 2381 4750 
Q 2619 4750 2861 4703 
Q 3103 4656 3366 4563 
z
" transform="scale(0.015625)"/>
       </defs>
       <use xlink:href="#DejaVuSans-30"/>
       <use xlink:href="#DejaVuSans-2e" x="63.623047"/>
       <use xlink:href="#DejaVuSans-30" x="95.410156"/>
       <use xlink:href="#DejaVuSans-36" x="159.033203"/>
      </g>
     </g>
    </g>
    <g id="text_16">
     <!-- Velocity -->
     <g transform="translate(28.275 237.775625) rotate(-90) scale(0.1 -0.1)">
      <defs>
       <path id="DejaVuSans-56" d="M 1831 0 
L 50 4666 
L 709 4666 
L 2188 738 
L 3669 4666 
L 4325 4666 
L 2547 0 
L 1831 0 
z
" transform="scale(0.015625)"/>
       <path id="DejaVuSans-65" d="M 3597 1894 
L 3597 1613 
L 953 1613 
Q 991 1019 1311 708 
Q 1631 397 2203 397 
Q 2534 397 2845 478 
Q 3156 559 3463 722 
L 3463 178 
Q 3153 47 2828 -22 
Q 2503 -91 2169 -91 
Q 1331 -91 842 396 
Q 353 884 353 1716 
Q 353 2575 817 3079 
Q 1281 3584 2069 3584 
Q 2775 3584 3186 3129 
Q 3597 2675 3597 1894 
z
M 3022 2063 
Q 3016 2534 2758 2815 
Q 2500 3097 2075 3097 
Q 1594 3097 1305 2825 
Q 1016 2553 972 2059 
L 3022 2063 
z
" transform="scale(0.015625)"/>
       <path id="DejaVuSans-6c" d="M 603 4863 
L 1178 4863 
L 1178 0 
L 603 0 
L 603 4863 
z
" transform="scale(0.015625)"/>
       <path id="DejaVuSans-63" d="M 3122 3366 
L 3122 2828 
Q 2878 2963 2633 3030 
Q 2388 3097 2138 3097 
Q 1578 3097 1268 2742 
Q 959 2388 959 1747 
Q 959 1106 1268 751 
Q 1578 397 2138 397 
Q 2388 397 2633 464 
Q 2878 531 3122 666 
L 3122 134 
Q 2881 22 2623 -34 
Q 2366 -91 2075 -91 
Q 1284 -91 818 406 
Q 353 903 353 1747 
Q 353 2603 823 3093 
Q 1294 3584 2113 3584 
Q 2378 3584 2631 3529 
Q 2884 3475 3122 3366 
z
" transform="scale(0.015625)"/>
       <path id="DejaVuSans-79" d="M 2059 -325 
Q 1816 -950 1584 -1140 
Q 1353 -1331 966 -1331 
L 506 -1331 
L 506 -850 
L 844 -850 
Q 1081 -850 1212 -737 
Q 1344 -625 1503 -206 
L 1606 56 
L 191 3500 
L 800 3500 
L 1894 763 
L 2988 3500 
L 3597 3500 
L 2059 -325 
z
" transform="scale(0.015625)"/>
      </defs>
      <use xlink:href="#DejaVuSans-56"/>
      <use xlink:href="#DejaVuSans-65" x="60.658203"/>
      <use xlink:href="#DejaVuSans-6c" x="122.181641"/>
      <use xlink:href="#DejaVuSans-6f" x="149.964844"/>
      <use xlink:href="#DejaVuSans-63" x="211.146484"/>
      <use xlink:href="#DejaVuSans-69" x="266.126953"/>
      <use xlink:href="#DejaVuSans-74" x="293.910156"/>
      <use xlink:href="#DejaVuSans-79" x="333.119141"/>
     </g>
    </g>
   </g>
   <g id="line2d_15">
    <path d="M 238.427016 232.09329 
L 238.78022 227.735405 
L 239.484009 223.409613 
L 240.533202 219.147847 
L 241.92006 214.981722 
L 243.634292 210.942337 
L 245.663178 207.060068 
L 247.991589 203.364309 
L 250.60215 199.883187 
L 253.236533 199.589041 
L 255.875014 199.5386 
L 258.497799 199.732295 
L 261.085236 200.168468 
L 263.617963 200.843383 
L 266.07711 201.751304 
L 268.444413 202.884583 
L 270.702354 204.233786 
L 272.834355 205.787828 
L 274.824817 207.53414 
L 276.659284 209.458824 
L 278.324528 211.546844 
L 279.808602 213.782169 
L 281.100932 216.147952 
L 282.19237 218.62667 
L 283.075222 221.200259 
L 283.743306 223.850235 
L 284.191947 226.557799 
L 284.418014 229.303927 
L 284.41995 232.069457 
L 284.197725 234.835151 
L 283.752897 237.581777 
L 283.088556 240.290166 
L 282.209354 242.941293 
L 281.121446 245.516354 
L 279.832502 247.996859 
L 278.351644 250.364738 
L 276.689417 252.602453 
L 274.857754 254.693146 
L 272.631113 259.566568 
L 270.025661 264.240399 
L 267.299227 265.733177 
L 264.471898 266.978064 
L 261.564636 267.96435 
L 258.599093 268.683429 
L 255.597432 269.128954 
L 252.582167 269.296971 
L 249.575896 269.18598 
L 246.601145 268.79697 
L 243.918919 265.187607 
L 241.549239 261.331469 
L 239.509681 257.258163 
L 237.815343 252.998734 
L 236.478705 248.58534 
L 235.509558 244.050949 
L 234.915018 239.429107 
L 234.699396 234.753737 
L 234.864272 230.058978 
L 235.408436 225.379044 
L 236.327946 220.748091 
L 237.616057 216.200079 
L 239.26332 211.768618 
L 241.257625 207.486762 
L 243.584215 203.386798 
L 246.225827 199.49993 
L 249.162781 195.855985 
L 252.373091 192.483011 
L 255.593974 192.352673 
L 258.801267 192.520372 
L 261.970941 192.984572 
L 265.079303 193.741061 
L 268.103213 194.783018 
L 271.020287 196.10117 
L 273.809087 197.683959 
L 276.449255 199.517763 
L 278.921708 201.587134 
L 281.208729 203.87505 
L 283.294096 206.363159 
L 285.163157 209.032023 
L 286.802906 211.861338 
L 288.202045 214.830137 
L 289.351002 217.916957 
L 290.241987 221.099986 
L 290.868981 224.357163 
L 291.227784 227.666277 
L 291.315985 231.00502 
L 291.133001 234.351035 
L 290.680048 237.681957 
L 289.960172 240.975442 
L 288.739456 247.155007 
L 287.026156 253.232704 
L 284.831961 259.166192 
L 282.171998 264.912984 
L 279.064853 270.430601 
L 275.532498 275.676902 
L 271.600291 280.610519 
L 267.296808 285.191477 
L 262.653697 289.381944 
L 257.944186 290.201248 
L 253.203461 290.586269 
L 248.46709 290.532766 
L 243.770536 290.041336 
L 239.148864 289.117368 
L 234.875073 284.825101 
L 230.980499 280.146135 
L 227.493361 275.119115 
L 224.438563 269.78465 
L 221.837636 264.184607 
L 219.708653 258.361514 
L 218.066242 252.358119 
L 216.921533 246.217117 
L 215.913935 236.637879 
L 215.819017 233.264414 
L 215.998137 229.883144 
L 216.450116 226.516609 
L 217.410681 220.24153 
L 218.873373 214.045979 
L 220.828302 207.972434 
L 223.262148 202.063595 
L 226.158061 196.362301 
L 229.495763 190.91129 
L 233.251546 185.752847 
L 237.398357 180.928234 
L 241.905915 176.477048 
L 246.502228 175.382166 
L 251.153045 174.70948 
L 255.823585 174.466281 
L 260.478799 174.655219 
L 265.08385 175.274232 
L 269.604421 176.316609 
L 274.007098 177.771189 
L 278.259714 179.622735 
L 282.331623 181.852344 
L 286.193972 184.438003 
L 289.819894 187.35515 
L 293.184676 190.577251 
L 296.265858 194.076376 
L 299.043323 197.823701 
L 301.499339 201.789962 
L 303.618532 205.945804 
L 305.387901 210.262049 
L 306.796787 214.709881 
L 307.836824 219.260924 
L 308.501905 223.887241 
L 308.788161 228.561283 
L 308.693947 233.255765 
L 308.458552 234.99773 
L 308.083333 236.722874 
L 307.331723 241.366918 
L 306.208124 245.956777 
L 304.719148 250.464867 
L 302.873702 254.86322 
L 300.682972 259.123432 
L 298.160492 263.216686 
L 295.083409 270.059666 
L 291.471526 276.658181 
L 287.348671 282.962806 
L 282.74271 288.923552 
L 277.685559 294.49059 
L 272.213054 299.615302 
L 266.364803 304.251498 
L 260.422567 305.411077 
L 254.43058 306.024904 
L 248.433733 306.084959 
L 242.47696 305.590446 
L 236.604688 304.547849 
L 230.86025 302.970641 
L 225.524088 297.932947 
L 220.634197 292.426847 
L 216.224532 286.501574 
L 212.324963 280.20789 
L 208.96119 273.596936 
L 206.154831 266.719347 
L 203.923472 259.624659 
L 202.28082 252.361025 
L 201.236777 244.975178 
L 200.79755 237.512636 
L 200.965741 230.018059 
L 201.740356 222.535733 
L 203.116811 215.110088 
L 205.086838 207.786206 
L 207.63847 200.610241 
L 210.755854 193.629701 
L 214.419181 186.893522 
L 218.6046 180.45191 
L 223.284077 174.355866 
L 228.425494 168.656454 
L 233.992619 163.403742 
L 239.706632 161.591318 
L 245.525667 160.295625 
L 251.645253 156.587205 
L 257.780876 156.389536 
L 263.886501 156.759463 
L 269.916548 157.69204 
L 275.82641 159.174927 
L 281.57304 161.18892 
L 287.115453 163.708736 
L 292.4151 166.703981 
L 297.436246 170.14028 
L 302.146156 173.980431 
L 306.515256 178.185548 
L 310.517165 182.716081 
L 314.128692 187.532725 
L 317.329759 192.597132 
L 320.103282 197.87245 
L 322.434994 203.323615 
L 324.313338 208.917504 
L 325.729275 214.622878 
L 326.676162 220.410195 
L 327.149642 226.251291 
L 327.147561 232.118968 
L 326.669929 237.986528 
L 325.718915 243.827273 
L 324.298904 249.613998 
L 322.416551 255.318526 
L 319.842172 263.857101 
L 316.588551 272.237788 
L 312.672531 280.41081 
L 308.115295 288.322344 
L 302.942742 295.914482 
L 297.185731 303.125697 
L 290.880337 309.891848 
L 284.067927 316.147694 
L 276.795058 321.828966 
L 269.113237 326.87483 
L 261.317138 328.284829 
L 253.464607 328.981115 
L 245.614452 328.95177 
L 237.825446 328.197322 
L 230.155309 326.730644 
L 222.659781 324.576282 
L 215.391757 321.769169 
L 208.400633 318.352826 
L 201.731704 314.377267 
L 195.425911 309.896781 
L 189.519613 304.967729 
L 184.044575 299.646534 
L 179.266921 291.042143 
L 174.969962 285.110956 
L 171.172099 278.952822 
L 167.888402 272.609023 
L 165.13091 266.116329 
L 162.909086 259.507128 
L 161.230061 252.809812 
L 160.098955 246.049371 
L 159.519073 239.248099 
L 159.492063 232.426427 
L 160.018026 225.603813 
L 161.095439 218.799673 
L 162.959932 209.088504 
L 165.6058 199.447351 
L 169.024502 189.911857 
L 173.204101 180.523646 
L 178.1287 171.331617 
L 183.777765 162.392806 
L 190.125467 153.772645 
L 197.140029 145.544562 
L 204.7832 137.788709 
L 213.009825 130.589768 
L 221.529031 126.979713 
L 230.283569 124.07615 
L 239.211791 121.933147 
L 248.248679 120.592394 
L 257.327019 120.0808 
L 266.378792 120.408778 
L 275.336479 121.569635 
L 284.134469 123.539985 
L 292.710292 126.281178 
L 301.005658 129.741614 
L 308.96726 133.859653 
L 316.547353 138.566894 
L 323.704015 143.791436 
L 330.401167 149.460993 
L 336.608424 155.505552 
L 342.300707 161.859538 
L 347.457763 168.463357 
L 352.063611 175.264394 
L 356.105931 182.217464 
L 359.57546 189.284789 
L 362.465426 196.435653 
L 364.771035 203.645736 
L 366.489005 210.896248 
L 368.393179 222.519156 
L 368.816102 226.875086 
L 368.885583 231.236011 
L 368.601555 235.597737 
L 367.964288 239.956153 
L 366.974411 244.306806 
L 365.632977 248.644472 
L 363.941557 252.96274 
L 361.902371 257.253609 
L 359.040951 267.398695 
L 355.362192 277.483367 
L 350.873486 287.476829 
L 345.585507 297.33862 
L 339.513107 307.017113 
L 332.67631 316.448528 
L 325.101321 325.556662 
L 316.821463 334.253667 
L 307.877971 342.441844 
L 298.320536 350.016928 
L 288.207481 356.872462 
L 277.605455 362.905531 
L 266.588658 368.023165 
L 255.476216 369.203193 
L 244.351073 369.36 
L 233.296486 368.489349 
L 222.393853 366.61456 
L 211.720575 363.784709 
L 201.348274 360.071148 
L 191.341372 355.562557 
L 181.756194 350.359282 
L 172.640427 344.567519 
L 164.033119 338.293813 
L 155.965051 331.640431 
L 148.459362 324.701671 
L 141.532375 317.561369 
L 135.194606 310.291333 
L 129.451762 302.950811 
L 124.305777 295.586591 
L 119.755742 288.233697 
L 115.559991 283.86222 
L 111.714171 279.544784 
L 108.212789 275.294622 
L 105.049753 271.120319 
L 102.21849 267.026398 
L 99.712452 263.013863 
L 97.52518 259.080713 
L 95.650612 255.22243 
L 94.083225 251.432404 
L 92.818153 247.702317 
L 92.290909 232.09329 
L 92.587418 228.434917 
L 93.181403 224.764448 
L 94.074829 221.070025 
L 95.509273 214.39447 
L 97.489205 207.663945 
L 100.020488 200.861141 
L 103.110122 193.972071 
L 106.765878 186.987152 
L 111.234572 176.956642 
L 116.524456 166.824453 
L 122.642932 156.601213 
L 129.595235 146.31276 
L 137.383131 136.002864 
L 146.003175 125.735641 
L 155.444894 115.597295 
L 165.689034 105.696766 
L 176.70574 96.164709 
L 188.453016 87.150337 
L 200.875818 78.815581 
L 213.666823 74.2725 
L 226.746112 70.715559 
L 240.024288 68.261587 
L 253.405123 66.994842 
L 266.788797 66.96 
L 280.07534 68.158311 
L 293.168254 70.54746 
L 305.977674 74.04524 
L 318.423096 78.536448 
L 330.435285 83.881868 
L 341.95743 89.928227 
L 352.945496 96.517928 
L 363.367885 103.497467 
L 373.204575 110.724095 
L 382.445859 118.07045 
L 391.090897 125.427174 
L 399.146176 132.703877 
L 406.623999 139.828777 
L 413.541078 146.747444 
L 419.917288 153.420941 
L 425.774564 159.823761 
L 431.135997 165.941687 
L 436.025076 171.769763 
L 440.465102 177.310431 
L 444.478687 182.571955 
L 448.087439 187.567024 
L 451.311645 192.311653 
L 454.408864 193.878466 
L 457.397732 195.215419 
L 460.296718 196.324397 
L 463.12419 197.20679 
L 465.898445 197.863295 
L 468.637822 198.29374 
L 471.360726 198.496942 
L 474.085773 198.470571 
L 476.831845 198.211021 
L 479.618267 197.713312 
L 482.464843 196.970965 
L 485.392078 195.975911 
L 488.421225 194.718393 
L 491.574498 193.186872 
L 494.875194 191.367948 
L 498.109091 192.192094 
L 498.109091 192.192094 
" clip-path="url(#peb87a6e7cd)" style="fill: none; stroke: #ff0000; stroke-width: 1.5; stroke-linecap: square"/>
   </g>
   <g id="LineCollection_1">
    <path d="M 259.41583 369.36 
L 259.41583 66.96 
" clip-path="url(#peb87a6e7cd)" style="fill: none; stroke-dasharray: 1.5,2.475; stroke-dashoffset: 0; stroke: #000000; stroke-width: 1.5"/>
   </g>
   <g id="patch_3">
    <path d="M 72 384.48 
L 72 51.84 
" style="fill: none; stroke: #000000; stroke-width: 0.8; stroke-linejoin: miter; stroke-linecap: square"/>
   </g>
   <g id="patch_4">
    <path d="M 518.4 384.48 
L 518.4 51.84 
" style="fill: none; stroke: #000000; stroke-width: 0.8; stroke-linejoin: miter; stroke-linecap: square"/>
   </g>
   <g id="patch_5">
    <path d="M 72 384.48 
L 518.4 384.48 
" style="fill: none; stroke: #000000; stroke-width: 0.8; stroke-linejoin: miter; stroke-linecap: square"/>
   </g>
   <g id="patch_6">
    <path d="M 72 51.84 
L 518.4 51.84 
" style="fill: none; stroke: #000000; stroke-width: 0.8; stroke-linejoin: miter; stroke-linecap: square"/>
   </g>
   <g id="text_17">
    <!-- 394 Steps States Plot with human Reward Function -->
    <g transform="translate(141.775312 45.84) scale(0.12 -0.12)">
     <defs>
      <path id="DejaVuSans-33" d="M 2597 2516 
Q 3050 2419 3304 2112 
Q 3559 1806 3559 1356 
Q 3559 666 3084 287 
Q 2609 -91 1734 -91 
Q 1441 -91 1130 -33 
Q 819 25 488 141 
L 488 750 
Q 750 597 1062 519 
Q 1375 441 1716 441 
Q 2309 441 2620 675 
Q 2931 909 2931 1356 
Q 2931 1769 2642 2001 
Q 2353 2234 1838 2234 
L 1294 2234 
L 1294 2753 
L 1863 2753 
Q 2328 2753 2575 2939 
Q 2822 3125 2822 3475 
Q 2822 3834 2567 4026 
Q 2313 4219 1838 4219 
Q 1578 4219 1281 4162 
Q 984 4106 628 3988 
L 628 4550 
Q 988 4650 1302 4700 
Q 1616 4750 1894 4750 
Q 2613 4750 3031 4423 
Q 3450 4097 3450 3541 
Q 3450 3153 3228 2886 
Q 3006 2619 2597 2516 
z
" transform="scale(0.015625)"/>
      <path id="DejaVuSans-39" d="M 703 97 
L 703 672 
Q 941 559 1184 500 
Q 1428 441 1663 441 
Q 2288 441 2617 861 
Q 2947 1281 2994 2138 
Q 2813 1869 2534 1725 
Q 2256 1581 1919 1581 
Q 1219 1581 811 2004 
Q 403 2428 403 3163 
Q 403 3881 828 4315 
Q 1253 4750 1959 4750 
Q 2769 4750 3195 4129 
Q 3622 3509 3622 2328 
Q 3622 1225 3098 567 
Q 2575 -91 1691 -91 
Q 1453 -91 1209 -44 
Q 966 3 703 97 
z
M 1959 2075 
Q 2384 2075 2632 2365 
Q 2881 2656 2881 3163 
Q 2881 3666 2632 3958 
Q 2384 4250 1959 4250 
Q 1534 4250 1286 3958 
Q 1038 3666 1038 3163 
Q 1038 2656 1286 2365 
Q 1534 2075 1959 2075 
z
" transform="scale(0.015625)"/>
      <path id="DejaVuSans-20" transform="scale(0.015625)"/>
      <path id="DejaVuSans-53" d="M 3425 4513 
L 3425 3897 
Q 3066 4069 2747 4153 
Q 2428 4238 2131 4238 
Q 1616 4238 1336 4038 
Q 1056 3838 1056 3469 
Q 1056 3159 1242 3001 
Q 1428 2844 1947 2747 
L 2328 2669 
Q 3034 2534 3370 2195 
Q 3706 1856 3706 1288 
Q 3706 609 3251 259 
Q 2797 -91 1919 -91 
Q 1588 -91 1214 -16 
Q 841 59 441 206 
L 441 856 
Q 825 641 1194 531 
Q 1563 422 1919 422 
Q 2459 422 2753 634 
Q 3047 847 3047 1241 
Q 3047 1584 2836 1778 
Q 2625 1972 2144 2069 
L 1759 2144 
Q 1053 2284 737 2584 
Q 422 2884 422 3419 
Q 422 4038 858 4394 
Q 1294 4750 2059 4750 
Q 2388 4750 2728 4690 
Q 3069 4631 3425 4513 
z
" transform="scale(0.015625)"/>
      <path id="DejaVuSans-70" d="M 1159 525 
L 1159 -1331 
L 581 -1331 
L 581 3500 
L 1159 3500 
L 1159 2969 
Q 1341 3281 1617 3432 
Q 1894 3584 2278 3584 
Q 2916 3584 3314 3078 
Q 3713 2572 3713 1747 
Q 3713 922 3314 415 
Q 2916 -91 2278 -91 
Q 1894 -91 1617 61 
Q 1341 213 1159 525 
z
M 3116 1747 
Q 3116 2381 2855 2742 
Q 2594 3103 2138 3103 
Q 1681 3103 1420 2742 
Q 1159 2381 1159 1747 
Q 1159 1113 1420 752 
Q 1681 391 2138 391 
Q 2594 391 2855 752 
Q 3116 1113 3116 1747 
z
" transform="scale(0.015625)"/>
      <path id="DejaVuSans-61" d="M 2194 1759 
Q 1497 1759 1228 1600 
Q 959 1441 959 1056 
Q 959 750 1161 570 
Q 1363 391 1709 391 
Q 2188 391 2477 730 
Q 2766 1069 2766 1631 
L 2766 1759 
L 2194 1759 
z
M 3341 1997 
L 3341 0 
L 2766 0 
L 2766 531 
Q 2569 213 2275 61 
Q 1981 -91 1556 -91 
Q 1019 -91 701 211 
Q 384 513 384 1019 
Q 384 1609 779 1909 
Q 1175 2209 1959 2209 
L 2766 2209 
L 2766 2266 
Q 2766 2663 2505 2880 
Q 2244 3097 1772 3097 
Q 1472 3097 1187 3025 
Q 903 2953 641 2809 
L 641 3341 
Q 956 3463 1253 3523 
Q 1550 3584 1831 3584 
Q 2591 3584 2966 3190 
Q 3341 2797 3341 1997 
z
" transform="scale(0.015625)"/>
      <path id="DejaVuSans-77" d="M 269 3500 
L 844 3500 
L 1563 769 
L 2278 3500 
L 2956 3500 
L 3675 769 
L 4391 3500 
L 4966 3500 
L 4050 0 
L 3372 0 
L 2619 2869 
L 1863 0 
L 1184 0 
L 269 3500 
z
" transform="scale(0.015625)"/>
      <path id="DejaVuSans-68" d="M 3513 2113 
L 3513 0 
L 2938 0 
L 2938 2094 
Q 2938 2591 2744 2837 
Q 2550 3084 2163 3084 
Q 1697 3084 1428 2787 
Q 1159 2491 1159 1978 
L 1159 0 
L 581 0 
L 581 4863 
L 1159 4863 
L 1159 2956 
Q 1366 3272 1645 3428 
Q 1925 3584 2291 3584 
Q 2894 3584 3203 3211 
Q 3513 2838 3513 2113 
z
" transform="scale(0.015625)"/>
      <path id="DejaVuSans-75" d="M 544 1381 
L 544 3500 
L 1119 3500 
L 1119 1403 
Q 1119 906 1312 657 
Q 1506 409 1894 409 
Q 2359 409 2629 706 
Q 2900 1003 2900 1516 
L 2900 3500 
L 3475 3500 
L 3475 0 
L 2900 0 
L 2900 538 
Q 2691 219 2414 64 
Q 2138 -91 1772 -91 
Q 1169 -91 856 284 
Q 544 659 544 1381 
z
M 1991 3584 
L 1991 3584 
z
" transform="scale(0.015625)"/>
      <path id="DejaVuSans-6d" d="M 3328 2828 
Q 3544 3216 3844 3400 
Q 4144 3584 4550 3584 
Q 5097 3584 5394 3201 
Q 5691 2819 5691 2113 
L 5691 0 
L 5113 0 
L 5113 2094 
Q 5113 2597 4934 2840 
Q 4756 3084 4391 3084 
Q 3944 3084 3684 2787 
Q 3425 2491 3425 1978 
L 3425 0 
L 2847 0 
L 2847 2094 
Q 2847 2600 2669 2842 
Q 2491 3084 2119 3084 
Q 1678 3084 1418 2786 
Q 1159 2488 1159 1978 
L 1159 0 
L 581 0 
L 581 3500 
L 1159 3500 
L 1159 2956 
Q 1356 3278 1631 3431 
Q 1906 3584 2284 3584 
Q 2666 3584 2933 3390 
Q 3200 3197 3328 2828 
z
" transform="scale(0.015625)"/>
      <path id="DejaVuSans-52" d="M 2841 2188 
Q 3044 2119 3236 1894 
Q 3428 1669 3622 1275 
L 4263 0 
L 3584 0 
L 2988 1197 
Q 2756 1666 2539 1819 
Q 2322 1972 1947 1972 
L 1259 1972 
L 1259 0 
L 628 0 
L 628 4666 
L 2053 4666 
Q 2853 4666 3247 4331 
Q 3641 3997 3641 3322 
Q 3641 2881 3436 2590 
Q 3231 2300 2841 2188 
z
M 1259 4147 
L 1259 2491 
L 2053 2491 
Q 2509 2491 2742 2702 
Q 2975 2913 2975 3322 
Q 2975 3731 2742 3939 
Q 2509 4147 2053 4147 
L 1259 4147 
z
" transform="scale(0.015625)"/>
      <path id="DejaVuSans-72" d="M 2631 2963 
Q 2534 3019 2420 3045 
Q 2306 3072 2169 3072 
Q 1681 3072 1420 2755 
Q 1159 2438 1159 1844 
L 1159 0 
L 581 0 
L 581 3500 
L 1159 3500 
L 1159 2956 
Q 1341 3275 1631 3429 
Q 1922 3584 2338 3584 
Q 2397 3584 2469 3576 
Q 2541 3569 2628 3553 
L 2631 2963 
z
" transform="scale(0.015625)"/>
      <path id="DejaVuSans-64" d="M 2906 2969 
L 2906 4863 
L 3481 4863 
L 3481 0 
L 2906 0 
L 2906 525 
Q 2725 213 2448 61 
Q 2172 -91 1784 -91 
Q 1150 -91 751 415 
Q 353 922 353 1747 
Q 353 2572 751 3078 
Q 1150 3584 1784 3584 
Q 2172 3584 2448 3432 
Q 2725 3281 2906 2969 
z
M 947 1747 
Q 947 1113 1208 752 
Q 1469 391 1925 391 
Q 2381 391 2643 752 
Q 2906 1113 2906 1747 
Q 2906 2381 2643 2742 
Q 2381 3103 1925 3103 
Q 1469 3103 1208 2742 
Q 947 2381 947 1747 
z
" transform="scale(0.015625)"/>
      <path id="DejaVuSans-46" d="M 628 4666 
L 3309 4666 
L 3309 4134 
L 1259 4134 
L 1259 2759 
L 3109 2759 
L 3109 2228 
L 1259 2228 
L 1259 0 
L 628 0 
L 628 4666 
z
" transform="scale(0.015625)"/>
     </defs>
     <use xlink:href="#DejaVuSans-33"/>
     <use xlink:href="#DejaVuSans-39" x="63.623047"/>
     <use xlink:href="#DejaVuSans-34" x="127.246094"/>
     <use xlink:href="#DejaVuSans-20" x="190.869141"/>
     <use xlink:href="#DejaVuSans-53" x="222.65625"/>
     <use xlink:href="#DejaVuSans-74" x="286.132812"/>
     <use xlink:href="#DejaVuSans-65" x="325.341797"/>
     <use xlink:href="#DejaVuSans-70" x="386.865234"/>
     <use xlink:href="#DejaVuSans-73" x="450.341797"/>
     <use xlink:href="#DejaVuSans-20" x="502.441406"/>
     <use xlink:href="#DejaVuSans-53" x="534.228516"/>
     <use xlink:href="#DejaVuSans-74" x="597.705078"/>
     <use xlink:href="#DejaVuSans-61" x="636.914062"/>
     <use xlink:href="#DejaVuSans-74" x="698.193359"/>
     <use xlink:href="#DejaVuSans-65" x="737.402344"/>
     <use xlink:href="#DejaVuSans-73" x="798.925781"/>
     <use xlink:href="#DejaVuSans-20" x="851.025391"/>
     <use xlink:href="#DejaVuSans-50" x="882.8125"/>
     <use xlink:href="#DejaVuSans-6c" x="943.115234"/>
     <use xlink:href="#DejaVuSans-6f" x="970.898438"/>
     <use xlink:href="#DejaVuSans-74" x="1032.080078"/>
     <use xlink:href="#DejaVuSans-20" x="1071.289062"/>
     <use xlink:href="#DejaVuSans-77" x="1103.076172"/>
     <use xlink:href="#DejaVuSans-69" x="1184.863281"/>
     <use xlink:href="#DejaVuSans-74" x="1212.646484"/>
     <use xlink:href="#DejaVuSans-68" x="1251.855469"/>
     <use xlink:href="#DejaVuSans-20" x="1315.234375"/>
     <use xlink:href="#DejaVuSans-68" x="1347.021484"/>
     <use xlink:href="#DejaVuSans-75" x="1410.400391"/>
     <use xlink:href="#DejaVuSans-6d" x="1473.779297"/>
     <use xlink:href="#DejaVuSans-61" x="1571.191406"/>
     <use xlink:href="#DejaVuSans-6e" x="1632.470703"/>
     <use xlink:href="#DejaVuSans-20" x="1695.849609"/>
     <use xlink:href="#DejaVuSans-52" x="1727.636719"/>
     <use xlink:href="#DejaVuSans-65" x="1792.619141"/>
     <use xlink:href="#DejaVuSans-77" x="1854.142578"/>
     <use xlink:href="#DejaVuSans-61" x="1935.929688"/>
     <use xlink:href="#DejaVuSans-72" x="1997.208984"/>
     <use xlink:href="#DejaVuSans-64" x="2036.572266"/>
     <use xlink:href="#DejaVuSans-20" x="2100.048828"/>
     <use xlink:href="#DejaVuSans-46" x="2131.835938"/>
     <use xlink:href="#DejaVuSans-75" x="2183.855469"/>
     <use xlink:href="#DejaVuSans-6e" x="2247.234375"/>
     <use xlink:href="#DejaVuSans-63" x="2310.613281"/>
     <use xlink:href="#DejaVuSans-74" x="2365.59375"/>
     <use xlink:href="#DejaVuSans-69" x="2404.802734"/>
     <use xlink:href="#DejaVuSans-6f" x="2432.585938"/>
     <use xlink:href="#DejaVuSans-6e" x="2493.767578"/>
    </g>
   </g>
   <g id="legend_1">
    <g id="patch_7">
     <path d="M 410.870312 379.48 
L 511.4 379.48 
Q 513.4 379.48 513.4 377.48 
L 513.4 363.801875 
Q 513.4 361.801875 511.4 361.801875 
L 410.870312 361.801875 
Q 408.870312 361.801875 408.870312 363.801875 
L 408.870312 377.48 
Q 408.870312 379.48 410.870312 379.48 
z
" style="fill: #ffffff; opacity: 0.8; stroke: #cccccc; stroke-linejoin: miter"/>
    </g>
    <g id="line2d_16">
     <path d="M 412.870312 369.900312 
L 432.870312 369.900312 
" style="fill: none; stroke-dasharray: 1.5,2.475; stroke-dashoffset: 0; stroke: #000000; stroke-width: 1.5"/>
    </g>
    <g id="text_18">
     <!-- Bottom of Hill -->
     <g transform="translate(440.870312 373.400312) scale(0.1 -0.1)">
      <defs>
       <path id="DejaVuSans-42" d="M 1259 2228 
L 1259 519 
L 2272 519 
Q 2781 519 3026 730 
Q 3272 941 3272 1375 
Q 3272 1813 3026 2020 
Q 2781 2228 2272 2228 
L 1259 2228 
z
M 1259 4147 
L 1259 2741 
L 2194 2741 
Q 2656 2741 2882 2914 
Q 3109 3088 3109 3444 
Q 3109 3797 2882 3972 
Q 2656 4147 2194 4147 
L 1259 4147 
z
M 628 4666 
L 2241 4666 
Q 2963 4666 3353 4366 
Q 3744 4066 3744 3513 
Q 3744 3084 3544 2831 
Q 3344 2578 2956 2516 
Q 3422 2416 3680 2098 
Q 3938 1781 3938 1306 
Q 3938 681 3513 340 
Q 3088 0 2303 0 
L 628 0 
L 628 4666 
z
" transform="scale(0.015625)"/>
       <path id="DejaVuSans-66" d="M 2375 4863 
L 2375 4384 
L 1825 4384 
Q 1516 4384 1395 4259 
Q 1275 4134 1275 3809 
L 1275 3500 
L 2222 3500 
L 2222 3053 
L 1275 3053 
L 1275 0 
L 697 0 
L 697 3053 
L 147 3053 
L 147 3500 
L 697 3500 
L 697 3744 
Q 697 4328 969 4595 
Q 1241 4863 1831 4863 
L 2375 4863 
z
" transform="scale(0.015625)"/>
       <path id="DejaVuSans-48" d="M 628 4666 
L 1259 4666 
L 1259 2753 
L 3553 2753 
L 3553 4666 
L 4184 4666 
L 4184 0 
L 3553 0 
L 3553 2222 
L 1259 2222 
L 1259 0 
L 628 0 
L 628 4666 
z
" transform="scale(0.015625)"/>
      </defs>
      <use xlink:href="#DejaVuSans-42"/>
      <use xlink:href="#DejaVuSans-6f" x="68.603516"/>
      <use xlink:href="#DejaVuSans-74" x="129.785156"/>
      <use xlink:href="#DejaVuSans-74" x="168.994141"/>
      <use xlink:href="#DejaVuSans-6f" x="208.203125"/>
      <use xlink:href="#DejaVuSans-6d" x="269.384766"/>
      <use xlink:href="#DejaVuSans-20" x="366.796875"/>
      <use xlink:href="#DejaVuSans-6f" x="398.583984"/>
      <use xlink:href="#DejaVuSans-66" x="459.765625"/>
      <use xlink:href="#DejaVuSans-20" x="494.970703"/>
      <use xlink:href="#DejaVuSans-48" x="526.757812"/>
      <use xlink:href="#DejaVuSans-69" x="601.953125"/>
      <use xlink:href="#DejaVuSans-6c" x="629.736328"/>
      <use xlink:href="#DejaVuSans-6c" x="657.519531"/>
     </g>
    </g>
   </g>
  </g>
 </g>
 <defs>
  <clipPath id="peb87a6e7cd">
   <rect x="72" y="51.84" width="446.4" height="332.64"/>
  </clipPath>
 </defs>
</svg>
